<svg aria-hidden="true" style="position: absolute; width: 0; height: 0; overflow: hidden;" version="1.1" xmlns="http://www.w3.org/2000/svg" xmlns:xlink="http://www.w3.org/1999/xlink">
<defs>
<symbol id="icon-more2" viewBox="0 0 16 16">
<path d="M6 3c0-1.105 0.895-2 2-2s2 0.895 2 2c0 1.105-0.895 2-2 2s-2-0.895-2-2zM6 8c0-1.105 0.895-2 2-2s2 0.895 2 2c0 1.105-0.895 2-2 2s-2-0.895-2-2zM6 13c0-1.105 0.895-2 2-2s2 0.895 2 2c0 1.105-0.895 2-2 2s-2-0.895-2-2z"></path>
</symbol>
<symbol id="icon-menu1" viewBox="0 0 16 16">
<path d="M13 7c1.105 0 2 0.895 2 2s-0.895 2-2 2c-1.105 0-2-0.895-2-2s0.895-2 2-2zM8 7c1.105 0 2 0.895 2 2s-0.895 2-2 2c-1.105 0-2-0.895-2-2s0.895-2 2-2zM3 7c1.105 0 2 0.895 2 2s-0.895 2-2 2c-1.105 0-2-0.895-2-2s0.895-2 2-2z"></path>
</symbol>
<symbol id="icon-star-empty3" viewBox="0 0 16 16">
<path d="M16 6.204l-5.528-0.803-2.472-5.009-2.472 5.009-5.528 0.803 4 3.899-0.944 5.505 4.944-2.599 4.944 2.599-0.944-5.505 4-3.899zM8 11.773l-3.492 1.836 0.667-3.888-2.825-2.753 3.904-0.567 1.746-3.537 1.746 3.537 3.904 0.567-2.825 2.753 0.667 3.888-3.492-1.836z"></path>
</symbol>
<symbol id="icon-star-full2" viewBox="0 0 16 16">
<path d="M16 6.204l-5.528-0.803-2.472-5.009-2.472 5.009-5.528 0.803 4 3.899-0.944 5.505 4.944-2.599 4.944 2.599-0.944-5.505 4-3.899z"></path>
</symbol>
<symbol id="icon-heart5" viewBox="0 0 16 16">
<path d="M11.8 1c-1.682 0-3.129 1.368-3.799 2.797-0.671-1.429-2.118-2.797-3.8-2.797-2.318 0-4.2 1.882-4.2 4.2 0 4.716 4.758 5.953 8 10.616 3.065-4.634 8-6.050 8-10.616 0-2.319-1.882-4.2-4.2-4.2z"></path>
</symbol>
<symbol id="icon-heart6" viewBox="0 0 16 16">
<path d="M8.021 16l-0.827-1.126c-1.015-1.382-2.212-2.376-3.37-3.338-0.973-0.808-1.892-1.571-2.592-2.485-0.829-1.084-1.232-2.252-1.232-3.569 0-2.471 2.097-4.482 4.675-4.482 0.901 0 1.798 0.317 2.595 0.916 0.26 0.195 0.505 0.418 0.73 0.662 0.225-0.244 0.47-0.467 0.73-0.662 0.797-0.599 1.694-0.916 2.595-0.916 2.578 0 4.675 2.011 4.675 4.482 0 1.266-0.404 2.405-1.234 3.482-0.695 0.901-1.602 1.662-2.562 2.469-1.182 0.993-2.405 2.019-3.383 3.421l-0.8 1.145zM4.675 3c-1.475 0-2.675 1.113-2.675 2.482 0 1.941 1.301 3.021 3.101 4.515 0.92 0.764 1.935 1.606 2.883 2.677 0.946-1.104 1.988-1.979 2.933-2.772 0.875-0.735 1.702-1.429 2.265-2.159 0.566-0.733 0.818-1.431 0.818-2.261 0-1.369-1.2-2.482-2.675-2.482-0.749 0-1.829 0.551-2.428 1.762l-0.896 1.809-0.896-1.808c-0.6-1.211-1.68-1.763-2.429-1.763z"></path>
</symbol>
<symbol id="icon-arrow-up4" viewBox="0 0 16 16">
<path d="M0 10.5l1 1 7-7 7 7 1-1-8-8-8 8z"></path>
</symbol>
<symbol id="icon-arrow-right4" viewBox="0 0 16 16">
<path d="M5.5 0l-1 1 7 7-7 7 1 1 8-8-8-8z"></path>
</symbol>
<symbol id="icon-arrow-down4" viewBox="0 0 16 16">
<path d="M16 5.5l-1-1-7 7-7-7-1 1 8 8 8-8z"></path>
</symbol>
<symbol id="icon-arrow-left4" viewBox="0 0 16 16">
<path d="M10.5 16l1-1-7-7 7-7-1-1-8 8 8 8z"></path>
</symbol>
<symbol id="icon-arrow-up5" viewBox="0 0 16 16">
<path d="M12.5 10l-4.5-4.5-4.5 4.5h9z"></path>
</symbol>
<symbol id="icon-arrow-right5" viewBox="0 0 16 16">
<path d="M6 12.5l4.5-4.5-4.5-4.5v9z"></path>
</symbol>
<symbol id="icon-arrow-down5" viewBox="0 0 16 16">
<path d="M3.5 6l4.5 4.5 4.5-4.5h-9z"></path>
</symbol>
<symbol id="icon-arrow-left5" viewBox="0 0 16 16">
<path d="M10 3.5l-4.5 4.5 4.5 4.5v-9z"></path>
</symbol>
<symbol id="icon-menu-open" viewBox="0 0 16 16">
<path d="M12 7l-4-4-4 4zM4 10l4 4 4-4z"></path>
</symbol>
<symbol id="icon-home" viewBox="0 0 16 16">
<path d="M16 9.226l-8-6.21-8 6.21v-2.532l8-6.21 8 6.21zM14 9v6h-4v-4h-4v4h-4v-6l6-4.5z"></path>
</symbol>
<symbol id="icon-pencil" viewBox="0 0 16 16">
<path d="M13.5 0c1.381 0 2.5 1.119 2.5 2.5 0 0.563-0.186 1.082-0.5 1.5l-1 1-3.5-3.5 1-1c0.418-0.314 0.937-0.5 1.5-0.5zM1 11.5l-1 4.5 4.5-1 9.25-9.25-3.5-3.5-9.25 9.25zM11.181 5.681l-7 7-0.862-0.862 7-7 0.862 0.862z"></path>
</symbol>
<symbol id="icon-image" viewBox="0 0 16 16">
<path d="M14.998 2c0.001 0.001 0.001 0.001 0.002 0.002v11.996c-0.001 0.001-0.001 0.001-0.002 0.002h-13.996c-0.001-0.001-0.001-0.001-0.002-0.002v-11.996c0.001-0.001 0.001-0.001 0.002-0.002h13.996zM15 1h-14c-0.55 0-1 0.45-1 1v12c0 0.55 0.45 1 1 1h14c0.55 0 1-0.45 1-1v-12c0-0.55-0.45-1-1-1v0z"></path>
<path d="M13 4.5c0 0.828-0.672 1.5-1.5 1.5s-1.5-0.672-1.5-1.5 0.672-1.5 1.5-1.5 1.5 0.672 1.5 1.5z"></path>
<path d="M14 13h-12v-2l3.5-6 4 5h1l3.5-3z"></path>
</symbol>
<symbol id="icon-images" viewBox="0 0 18 16">
<path d="M17 2h-1v-1c0-0.55-0.45-1-1-1h-14c-0.55 0-1 0.45-1 1v12c0 0.55 0.45 1 1 1h1v1c0 0.55 0.45 1 1 1h14c0.55 0 1-0.45 1-1v-12c0-0.55-0.45-1-1-1zM2 3v10h-0.998c-0.001-0.001-0.001-0.001-0.002-0.002v-11.996c0.001-0.001 0.001-0.001 0.002-0.002h13.996c0.001 0.001 0.001 0.001 0.002 0.002v0.998h-12c-0.55 0-1 0.45-1 1v0zM17 14.998c-0.001 0.001-0.001 0.001-0.002 0.002h-13.996c-0.001-0.001-0.001-0.001-0.002-0.002v-11.996c0.001-0.001 0.001-0.001 0.002-0.002h13.996c0.001 0.001 0.001 0.001 0.002 0.002v11.996z"></path>
<path d="M15 5.5c0 0.828-0.672 1.5-1.5 1.5s-1.5-0.672-1.5-1.5 0.672-1.5 1.5-1.5 1.5 0.672 1.5 1.5z"></path>
<path d="M16 14h-12v-2l3.5-6 4 5h1l3.5-3z"></path>
</symbol>
<symbol id="icon-camera" viewBox="0 0 16 16">
<path d="M4.75 9.5c0 1.795 1.455 3.25 3.25 3.25s3.25-1.455 3.25-3.25-1.455-3.25-3.25-3.25-3.25 1.455-3.25 3.25zM15 4h-3.5c-0.25-1-0.5-2-1.5-2h-4c-1 0-1.25 1-1.5 2h-3.5c-0.55 0-1 0.45-1 1v9c0 0.55 0.45 1 1 1h14c0.55 0 1-0.45 1-1v-9c0-0.55-0.45-1-1-1zM8 13.938c-2.451 0-4.438-1.987-4.438-4.438s1.987-4.438 4.438-4.438c2.451 0 4.438 1.987 4.438 4.438s-1.987 4.438-4.438 4.438zM15 7h-2v-1h2v1z"></path>
</symbol>
<symbol id="icon-headphones" viewBox="0 0 16 16">
<path d="M4.5 9h-1v7h1c0.275 0 0.5-0.225 0.5-0.5v-6c0-0.275-0.225-0.5-0.5-0.5z"></path>
<path d="M11.5 9c-0.275 0-0.5 0.225-0.5 0.5v6c0 0.275 0.225 0.5 0.5 0.5h1v-7h-1z"></path>
<path d="M16 8c0-4.418-3.582-8-8-8s-8 3.582-8 8c0 0.96 0.169 1.88 0.479 2.732-0.304 0.519-0.479 1.123-0.479 1.768 0 1.763 1.304 3.222 3 3.464v-6.928c-0.499 0.071-0.963 0.248-1.371 0.506-0.084-0.417-0.129-0.849-0.129-1.292 0-3.59 2.91-6.5 6.5-6.5s6.5 2.91 6.5 6.5c0 0.442-0.044 0.874-0.128 1.292-0.408-0.259-0.873-0.435-1.372-0.507v6.929c1.696-0.243 3-1.701 3-3.464 0-0.645-0.175-1.249-0.479-1.768 0.31-0.853 0.479-1.773 0.479-2.732z"></path>
</symbol>
<symbol id="icon-music" viewBox="0 0 16 16">
<path d="M15 0h1v11.5c0 1.381-1.567 2.5-3.5 2.5s-3.5-1.119-3.5-2.5c0-1.381 1.567-2.5 3.5-2.5 0.979 0 1.865 0.287 2.5 0.751v-5.751l-8 1.778v7.722c0 1.381-1.567 2.5-3.5 2.5s-3.5-1.119-3.5-2.5c0-1.381 1.567-2.5 3.5-2.5 0.979 0 1.865 0.287 2.5 0.751v-9.751l9-2z"></path>
</symbol>
<symbol id="icon-play" viewBox="0 0 16 16">
<path d="M15.331 2.502c-2.244-0.323-4.724-0.502-7.331-0.502s-5.087 0.179-7.331 0.502c-0.43 1.683-0.669 3.543-0.669 5.498s0.239 3.815 0.669 5.498c2.244 0.323 4.724 0.502 7.331 0.502s5.087-0.179 7.331-0.502c0.43-1.683 0.669-3.543 0.669-5.498s-0.239-3.815-0.669-5.498zM6 11v-6l5 3-5 3z"></path>
</symbol>
<symbol id="icon-film" viewBox="0 0 16 16">
<path d="M0 2v12h16v-12h-16zM3 13h-2v-2h2v2zM3 9h-2v-2h2v2zM3 5h-2v-2h2v2zM12 13h-8v-10h8v10zM15 13h-2v-2h2v2zM15 9h-2v-2h2v2zM15 5h-2v-2h2v2zM6 5v6l4-3z"></path>
</symbol>
<symbol id="icon-video-camera" viewBox="0 0 16 16">
<path d="M6 4.5c0-1.381 1.119-2.5 2.5-2.5s2.5 1.119 2.5 2.5c0 1.381-1.119 2.5-2.5 2.5s-2.5-1.119-2.5-2.5zM0 4.5c0-1.381 1.119-2.5 2.5-2.5s2.5 1.119 2.5 2.5c0 1.381-1.119 2.5-2.5 2.5s-2.5-1.119-2.5-2.5zM12 9.5v-1.5c0-0.55-0.45-1-1-1h-10c-0.55 0-1 0.45-1 1v5c0 0.55 0.45 1 1 1h10c0.55 0 1-0.45 1-1v-1.5l4 2.5v-7l-4 2.5zM10 12h-8v-3h8v3z"></path>
</symbol>
<symbol id="icon-bullhorn" viewBox="0 0 16 16">
<path d="M16 6.707c0-3.139-0.919-5.687-2.054-5.707 0.005-0 0.009-0 0.014-0h-1.296c0 0-3.044 2.287-7.425 3.184-0.134 0.708-0.219 1.551-0.219 2.523s0.085 1.816 0.219 2.523c4.382 0.897 7.425 3.184 7.425 3.184h1.296c-0.005 0-0.009-0-0.014-0.001 1.136-0.020 2.054-2.567 2.054-5.707zM13.513 11.551c-0.147 0-0.305-0.152-0.387-0.243-0.197-0.22-0.387-0.562-0.55-0.989-0.363-0.957-0.564-2.239-0.564-3.611s0.2-2.655 0.564-3.611c0.162-0.428 0.353-0.77 0.55-0.99 0.081-0.091 0.24-0.243 0.387-0.243s0.305 0.152 0.387 0.243c0.197 0.22 0.387 0.562 0.55 0.99 0.363 0.957 0.564 2.239 0.564 3.611s-0.2 2.655-0.564 3.611c-0.162 0.428-0.353 0.77-0.55 0.989-0.081 0.091-0.24 0.243-0.387 0.243zM3.935 6.707c0-0.812 0.060-1.6 0.173-2.33-0.74 0.102-1.39 0.161-2.193 0.161-1.048 0-1.048 0-1.048 0l-0.867 1.479v1.378l0.867 1.479c0 0 0 0 1.048 0 0.803 0 1.453 0.059 2.193 0.161-0.113-0.729-0.173-1.518-0.173-2.33zM5.752 10.034l-2-0.383 1.279 5.024c0.066 0.26 0.324 0.391 0.573 0.291l1.852-0.741c0.249-0.1 0.349-0.374 0.222-0.611l-1.926-3.581zM13.513 8.574c-0.057 0-0.118-0.059-0.149-0.094-0.076-0.085-0.149-0.217-0.212-0.381-0.14-0.369-0.217-0.863-0.217-1.392s0.077-1.023 0.217-1.392c0.063-0.165 0.136-0.297 0.212-0.381 0.031-0.035 0.092-0.094 0.149-0.094s0.118 0.059 0.149 0.094c0.076 0.085 0.149 0.217 0.212 0.381 0.14 0.369 0.217 0.863 0.217 1.392s-0.077 1.023-0.217 1.392c-0.063 0.165-0.136 0.297-0.212 0.381-0.031 0.035-0.092 0.094-0.149 0.094z"></path>
</symbol>
<symbol id="icon-connection" viewBox="0 0 20 16">
<path d="M10 9c1.654 0 3.154 0.673 4.241 1.759l-1.414 1.414c-0.724-0.724-1.724-1.173-2.827-1.173s-2.103 0.449-2.827 1.173l-1.414-1.414c1.086-1.086 2.586-1.759 4.241-1.759zM2.929 7.929c1.889-1.889 4.4-2.929 7.071-2.929s5.182 1.040 7.071 2.929l-1.414 1.414c-1.511-1.511-3.52-2.343-5.657-2.343s-4.146 0.832-5.657 2.343l-1.414-1.414zM15.45 2.101c1.667 0.705 3.164 1.715 4.45 3v0l-1.414 1.414c-2.267-2.266-5.28-3.515-8.485-3.515s-6.219 1.248-8.485 3.515l-1.414-1.414c1.285-1.285 2.783-2.295 4.45-3 1.727-0.73 3.56-1.101 5.45-1.101s3.723 0.37 5.45 1.101zM9 14c0-0.552 0.448-1 1-1s1 0.448 1 1c0 0.552-0.448 1-1 1s-1-0.448-1-1z"></path>
</symbol>
<symbol id="icon-mic" viewBox="0 0 16 16">
<path d="M7.5 11c1.381 0 2.5-1.119 2.5-2.5v-6c0-1.381-1.119-2.5-2.5-2.5s-2.5 1.119-2.5 2.5v6c0 1.381 1.119 2.5 2.5 2.5zM11 7v1.5c0 1.933-1.567 3.5-3.5 3.5s-3.5-1.567-3.5-3.5v-1.5h-1v1.5c0 2.316 1.75 4.223 4 4.472v2.028h-2v1h5v-1h-2v-2.028c2.25-0.249 4-2.156 4-4.472v-1.5h-1z"></path>
</symbol>
<symbol id="icon-book" viewBox="0 0 16 16">
<path d="M14 2v13h-10.5c-0.829 0-1.5-0.672-1.5-1.5s0.671-1.5 1.5-1.5h9.5v-12h-10c-1.1 0-2 0.9-2 2v12c0 1.1 0.9 2 2 2h12v-14h-1z"></path>
<path d="M3.501 13v0c-0 0-0.001 0-0.001 0-0.276 0-0.5 0.224-0.5 0.5s0.224 0.5 0.5 0.5c0 0 0.001-0 0.001-0v0h9.498v-1h-9.498z"></path>
</symbol>
<symbol id="icon-books" viewBox="0 0 18 16">
<path d="M3.5 2h-3c-0.275 0-0.5 0.225-0.5 0.5v11c0 0.275 0.225 0.5 0.5 0.5h3c0.275 0 0.5-0.225 0.5-0.5v-11c0-0.275-0.225-0.5-0.5-0.5zM3 5h-2v-1h2v1z"></path>
<path d="M8.5 2h-3c-0.275 0-0.5 0.225-0.5 0.5v11c0 0.275 0.225 0.5 0.5 0.5h3c0.275 0 0.5-0.225 0.5-0.5v-11c0-0.275-0.225-0.5-0.5-0.5zM8 5h-2v-1h2v1z"></path>
<path d="M11.954 2.773l-2.679 1.35c-0.246 0.124-0.345 0.426-0.222 0.671l4.5 8.93c0.124 0.246 0.426 0.345 0.671 0.222l2.679-1.35c0.246-0.124 0.345-0.426 0.222-0.671l-4.5-8.93c-0.124-0.246-0.426-0.345-0.671-0.222z"></path>
</symbol>
<symbol id="icon-file-text" viewBox="0 0 16 16">
<path d="M13.5 0h-12c-0.825 0-1.5 0.675-1.5 1.5v13c0 0.825 0.675 1.5 1.5 1.5h12c0.825 0 1.5-0.675 1.5-1.5v-13c0-0.825-0.675-1.5-1.5-1.5zM13 14h-11v-12h11v12zM4 7h7v1h-7zM4 9h7v1h-7zM4 11h7v1h-7zM4 5h7v1h-7z"></path>
</symbol>
<symbol id="icon-file-empty" viewBox="0 0 16 16">
<path d="M14.341 3.579c-0.347-0.473-0.831-1.027-1.362-1.558s-1.085-1.015-1.558-1.362c-0.806-0.591-1.197-0.659-1.421-0.659h-7.75c-0.689 0-1.25 0.561-1.25 1.25v13.5c0 0.689 0.561 1.25 1.25 1.25h11.5c0.689 0 1.25-0.561 1.25-1.25v-9.75c0-0.224-0.068-0.615-0.659-1.421zM12.271 2.729c0.48 0.48 0.856 0.912 1.134 1.271h-2.406v-2.405c0.359 0.278 0.792 0.654 1.271 1.134zM14 14.75c0 0.136-0.114 0.25-0.25 0.25h-11.5c-0.135 0-0.25-0.114-0.25-0.25v-13.5c0-0.135 0.115-0.25 0.25-0.25 0 0 7.749-0 7.75 0v3.5c0 0.276 0.224 0.5 0.5 0.5h3.5v9.75z"></path>
</symbol>
<symbol id="icon-files-empty" viewBox="0 0 16 16">
<path d="M14.341 5.579c-0.347-0.473-0.831-1.027-1.362-1.558s-1.085-1.015-1.558-1.362c-0.806-0.591-1.197-0.659-1.421-0.659h-5.75c-0.689 0-1.25 0.561-1.25 1.25v11.5c0 0.689 0.561 1.25 1.25 1.25h9.5c0.689 0 1.25-0.561 1.25-1.25v-7.75c0-0.224-0.068-0.615-0.659-1.421zM12.271 4.729c0.48 0.48 0.856 0.912 1.134 1.271h-2.406v-2.405c0.359 0.278 0.792 0.654 1.271 1.134v0zM14 14.75c0 0.136-0.114 0.25-0.25 0.25h-9.5c-0.136 0-0.25-0.114-0.25-0.25v-11.5c0-0.135 0.114-0.25 0.25-0.25 0 0 5.749-0 5.75 0v3.5c0 0.276 0.224 0.5 0.5 0.5h3.5v7.75z"></path>
<path d="M9.421 0.659c-0.806-0.591-1.197-0.659-1.421-0.659h-5.75c-0.689 0-1.25 0.561-1.25 1.25v11.5c0 0.604 0.43 1.109 1 1.225v-12.725c0-0.135 0.115-0.25 0.25-0.25h7.607c-0.151-0.124-0.297-0.238-0.437-0.341z"></path>
</symbol>
<symbol id="icon-file-picture" viewBox="0 0 16 16">
<path d="M13 14h-10v-2l3-5 4.109 5 2.891-2v4z"></path>
<path d="M13 7.5c0 0.828-0.672 1.5-1.5 1.5s-1.5-0.672-1.5-1.5 0.672-1.5 1.5-1.5c0.828 0 1.5 0.672 1.5 1.5z"></path>
<path d="M14.341 3.579c-0.347-0.473-0.831-1.027-1.362-1.558s-1.085-1.015-1.558-1.362c-0.806-0.591-1.197-0.659-1.421-0.659h-7.75c-0.689 0-1.25 0.561-1.25 1.25v13.5c0 0.689 0.561 1.25 1.25 1.25h11.5c0.689 0 1.25-0.561 1.25-1.25v-9.75c0-0.224-0.068-0.615-0.659-1.421zM12.271 2.729c0.48 0.48 0.856 0.912 1.134 1.271h-2.406v-2.405c0.359 0.278 0.792 0.654 1.271 1.134zM14 14.75c0 0.136-0.114 0.25-0.25 0.25h-11.5c-0.135 0-0.25-0.114-0.25-0.25v-13.5c0-0.135 0.115-0.25 0.25-0.25 0 0 7.749-0 7.75 0v3.5c0 0.276 0.224 0.5 0.5 0.5h3.5v9.75z"></path>
</symbol>
<symbol id="icon-file-music" viewBox="0 0 16 16">
<path d="M14.341 3.579c-0.347-0.473-0.831-1.027-1.362-1.558s-1.085-1.015-1.558-1.362c-0.806-0.591-1.197-0.659-1.421-0.659h-7.75c-0.689 0-1.25 0.561-1.25 1.25v13.5c0 0.689 0.561 1.25 1.25 1.25h11.5c0.689 0 1.25-0.561 1.25-1.25v-9.75c0-0.224-0.068-0.615-0.659-1.421v0zM12.271 2.729c0.48 0.48 0.856 0.912 1.134 1.271h-2.406v-2.405c0.359 0.278 0.792 0.654 1.271 1.134v0zM14 14.75c0 0.136-0.114 0.25-0.25 0.25h-11.5c-0.135 0-0.25-0.114-0.25-0.25v-13.5c0-0.135 0.115-0.25 0.25-0.25 0 0 7.749-0 7.75 0v3.5c0 0.276 0.224 0.5 0.5 0.5h3.5v9.75z"></path>
<path d="M11.817 6.113c-0.116-0.095-0.268-0.133-0.415-0.104l-5 1c-0.234 0.047-0.402 0.252-0.402 0.49v3.701c-0.294-0.128-0.636-0.201-1-0.201-1.105 0-2 0.672-2 1.5s0.895 1.5 2 1.5 2-0.672 2-1.5v-3.59l4-0.8v2.091c-0.294-0.128-0.636-0.201-1-0.201-1.105 0-2 0.672-2 1.5s0.895 1.5 2 1.5 2-0.672 2-1.5v-5c0-0.15-0.067-0.292-0.183-0.387z"></path>
</symbol>
<symbol id="icon-file-play" viewBox="0 0 16 16">
<path d="M6 6l5 3.5-5 3.5v-7z"></path>
<path d="M14.341 3.579c-0.347-0.473-0.831-1.027-1.362-1.558s-1.085-1.015-1.558-1.362c-0.806-0.591-1.197-0.659-1.421-0.659h-7.75c-0.689 0-1.25 0.561-1.25 1.25v13.5c0 0.689 0.561 1.25 1.25 1.25h11.5c0.689 0 1.25-0.561 1.25-1.25v-9.75c0-0.224-0.068-0.615-0.659-1.421zM12.271 2.729c0.48 0.48 0.856 0.912 1.134 1.271h-2.406v-2.405c0.359 0.278 0.792 0.654 1.271 1.134zM14 14.75c0 0.136-0.114 0.25-0.25 0.25h-11.5c-0.135 0-0.25-0.114-0.25-0.25v-13.5c0-0.135 0.115-0.25 0.25-0.25 0 0 7.749-0 7.75 0v3.5c0 0.276 0.224 0.5 0.5 0.5h3.5v9.75z"></path>
</symbol>
<symbol id="icon-file-video" viewBox="0 0 16 16">
<path d="M14.341 3.579c-0.347-0.473-0.831-1.027-1.362-1.558s-1.085-1.015-1.558-1.362c-0.806-0.591-1.197-0.659-1.421-0.659h-7.75c-0.689 0-1.25 0.561-1.25 1.25v13.5c0 0.689 0.561 1.25 1.25 1.25h11.5c0.689 0 1.25-0.561 1.25-1.25v-9.75c0-0.224-0.068-0.615-0.659-1.421v0 0zM12.271 2.729c0.48 0.48 0.856 0.912 1.134 1.271h-2.406v-2.405c0.359 0.278 0.792 0.654 1.271 1.134v0 0zM14 14.75c0 0.136-0.114 0.25-0.25 0.25h-11.5c-0.135 0-0.25-0.114-0.25-0.25v-13.5c0-0.135 0.115-0.25 0.25-0.25 0 0 7.749-0 7.75 0v3.5c0 0.276 0.224 0.5 0.5 0.5h3.5v9.75z"></path>
<path d="M4 8h5v5h-5v-5z"></path>
<path d="M9 10l3-2v5l-3-2z"></path>
</symbol>
<symbol id="icon-copy" viewBox="0 0 16 16">
<path d="M10 4v-4h-7l-3 3v9h6v4h10v-12h-6zM3 1.414v1.586h-1.586l1.586-1.586zM1 11v-7h3v-3h5v3l-3 3v4h-5zM9 5.414v1.586h-1.586l1.586-1.586zM15 15h-8v-7h3v-3h5v10z"></path>
</symbol>
<symbol id="icon-paste" viewBox="0 0 16 16">
<path d="M11 2h-2v-1c0-0.55-0.45-1-1-1h-2c-0.55 0-1 0.45-1 1v1h-2v2h8v-2zM8 2h-2v-0.998c0.001-0.001 0.001-0.001 0.002-0.002h1.996c0.001 0.001 0.001 0.001 0.002 0.002v0.998zM13 5v-2.5c0-0.275-0.225-0.5-0.5-0.5h-1v1h0.5v2h-3l-3 3v4h-4v-9h0.5v-1h-1c-0.275 0-0.5 0.225-0.5 0.5v10c0 0.275 0.225 0.5 0.5 0.5h4.5v3h10v-11h-3zM9 6.414v1.586h-1.586l1.586-1.586zM15 15h-8v-6h3v-3h5v9z"></path>
</symbol>
<symbol id="icon-folder" viewBox="0 0 16 16">
<path d="M7 2l2 2h7v11h-16v-13z"></path>
</symbol>
<symbol id="icon-folder-open" viewBox="0 0 16 16">
<path d="M13 15l3-8h-13l-3 8zM2 6l-2 9v-13h4.5l2 2h6.5v2z"></path>
</symbol>
<symbol id="icon-folder-plus" viewBox="0 0 16 16">
<path d="M9 4l-2-2h-7v13h16v-11h-7zM11 11h-2v2h-2v-2h-2v-2h2v-2h2v2h2v2z"></path>
</symbol>
<symbol id="icon-folder-minus" viewBox="0 0 16 16">
<path d="M9 4l-2-2h-7v13h16v-11h-7zM11 11h-6v-2h6v2z"></path>
</symbol>
<symbol id="icon-folder-download" viewBox="0 0 16 16">
<path d="M9 4l-2-2h-7v13h16v-11h-7zM8 13.5l-3.5-3.5h2.5v-4h2v4h2.5l-3.5 3.5z"></path>
</symbol>
<symbol id="icon-folder-upload" viewBox="0 0 16 16">
<path d="M9 4l-2-2h-7v13h16v-11h-7zM8 7.5l3.5 3.5h-2.5v4h-2v-4h-2.5l3.5-3.5z"></path>
</symbol>
<symbol id="icon-price-tag" viewBox="0 0 16 16">
<path d="M15.25 0h-6c-0.412 0-0.989 0.239-1.28 0.53l-7.439 7.439c-0.292 0.292-0.292 0.769 0 1.061l6.439 6.439c0.292 0.292 0.769 0.292 1.061 0l7.439-7.439c0.292-0.292 0.53-0.868 0.53-1.28v-6c0-0.412-0.338-0.75-0.75-0.75zM11.5 6c-0.828 0-1.5-0.672-1.5-1.5s0.672-1.5 1.5-1.5 1.5 0.672 1.5 1.5-0.672 1.5-1.5 1.5z"></path>
</symbol>
<symbol id="icon-price-tags" viewBox="0 0 20 16">
<path d="M19.25 0h-6c-0.412 0-0.989 0.239-1.28 0.53l-7.439 7.439c-0.292 0.292-0.292 0.769 0 1.061l6.439 6.439c0.292 0.292 0.769 0.292 1.061 0l7.439-7.439c0.292-0.292 0.53-0.868 0.53-1.28v-6c0-0.412-0.337-0.75-0.75-0.75zM15.5 6c-0.828 0-1.5-0.672-1.5-1.5s0.672-1.5 1.5-1.5 1.5 0.672 1.5 1.5-0.672 1.5-1.5 1.5z"></path>
<path d="M2 8.5l8.5-8.5h-1.25c-0.412 0-0.989 0.239-1.28 0.53l-7.439 7.439c-0.292 0.292-0.292 0.769 0 1.061l6.439 6.439c0.292 0.292 0.769 0.292 1.061 0l0.47-0.47-6.5-6.5z"></path>
</symbol>
<symbol id="icon-coin-dollar" viewBox="0 0 16 16">
<path d="M7.5 1c-4.142 0-7.5 3.358-7.5 7.5s3.358 7.5 7.5 7.5c4.142 0 7.5-3.358 7.5-7.5s-3.358-7.5-7.5-7.5zM7.5 14.5c-3.314 0-6-2.686-6-6s2.686-6 6-6c3.314 0 6 2.686 6 6s-2.686 6-6 6zM8 8v-2h2v-1h-2v-1h-1v1h-2v4h2v2h-2v1h2v1h1v-1h2l-0-4h-2zM7 8h-1v-2h1v2zM9 11h-1v-2h1v2z"></path>
</symbol>
<symbol id="icon-coin-euro" viewBox="0 0 16 16">
<path d="M7.5 1c-4.142 0-7.5 3.358-7.5 7.5s3.358 7.5 7.5 7.5c4.142 0 7.5-3.358 7.5-7.5s-3.358-7.5-7.5-7.5zM7.5 14.5c-3.314 0-6-2.686-6-6s2.686-6 6-6c3.314 0 6 2.686 6 6s-2.686 6-6 6z"></path>
<path d="M10.482 10.068c-0.239-0.139-0.545-0.058-0.684 0.181-0.27 0.463-0.767 0.751-1.298 0.751h-2c-0.652 0-1.208-0.418-1.414-1h2.414c0.276 0 0.5-0.224 0.5-0.5s-0.224-0.5-0.5-0.5h-2.5v-1h2.5c0.276 0 0.5-0.224 0.5-0.5s-0.224-0.5-0.5-0.5h-2.414c0.206-0.582 0.762-1 1.414-1h2c0.531 0 1.028 0.288 1.298 0.751 0.139 0.239 0.445 0.32 0.684 0.181s0.32-0.445 0.181-0.684c-0.448-0.77-1.277-1.249-2.162-1.249h-2c-1.207 0-2.217 0.86-2.45 2h-0.55c-0.276 0-0.5 0.224-0.5 0.5s0.224 0.5 0.5 0.5h0.5v1h-0.5c-0.276 0-0.5 0.224-0.5 0.5s0.224 0.5 0.5 0.5h0.55c0.232 1.14 1.242 2 2.45 2h2c0.886 0 1.714-0.478 2.162-1.249 0.139-0.239 0.058-0.545-0.181-0.684z"></path>
</symbol>
<symbol id="icon-coin-pound" viewBox="0 0 16 16">
<path d="M7.5 1c-4.142 0-7.5 3.358-7.5 7.5s3.358 7.5 7.5 7.5c4.142 0 7.5-3.358 7.5-7.5s-3.358-7.5-7.5-7.5zM7.5 14.5c-3.314 0-6-2.686-6-6s2.686-6 6-6c3.314 0 6 2.686 6 6s-2.686 6-6 6z"></path>
<path d="M9.5 11h-3.5v-2h1.5c0.276 0 0.5-0.224 0.5-0.5s-0.224-0.5-0.5-0.5h-1.5v-0.5c0-0.827 0.673-1.5 1.5-1.5 0.534 0 1.032 0.288 1.3 0.75 0.138 0.239 0.444 0.321 0.683 0.182s0.321-0.444 0.182-0.683c-0.446-0.771-1.276-1.25-2.165-1.25-1.378 0-2.5 1.122-2.5 2.5v0.5h-0.5c-0.276 0-0.5 0.224-0.5 0.5s0.224 0.5 0.5 0.5h0.5v3h4.5c0.276 0 0.5-0.224 0.5-0.5s-0.224-0.5-0.5-0.5z"></path>
</symbol>
<symbol id="icon-coin-yen" viewBox="0 0 16 16">
<path d="M7.5 1c-4.142 0-7.5 3.358-7.5 7.5s3.358 7.5 7.5 7.5c4.142 0 7.5-3.358 7.5-7.5s-3.358-7.5-7.5-7.5zM7.5 14.5c-3.314 0-6-2.686-6-6s2.686-6 6-6c3.314 0 6 2.686 6 6s-2.686 6-6 6z"></path>
<path d="M9.5 9c0.276 0 0.5-0.224 0.5-0.5s-0.224-0.5-0.5-0.5h-1.066l1.482-2.223c0.153-0.23 0.091-0.54-0.139-0.693s-0.54-0.091-0.693 0.139l-1.584 2.376-1.584-2.376c-0.153-0.23-0.464-0.292-0.693-0.139s-0.292 0.464-0.139 0.693l1.482 2.223h-1.066c-0.276 0-0.5 0.224-0.5 0.5s0.224 0.5 0.5 0.5h1.5v1h-1.5c-0.276 0-0.5 0.224-0.5 0.5s0.224 0.5 0.5 0.5h1.5v1.5c0 0.276 0.224 0.5 0.5 0.5s0.5-0.224 0.5-0.5v-1.5h1.5c0.276 0 0.5-0.224 0.5-0.5s-0.224-0.5-0.5-0.5h-1.5v-1h1.5z"></path>
</symbol>
<symbol id="icon-envelop" viewBox="0 0 16 16">
<path d="M14.5 2h-13c-0.825 0-1.5 0.675-1.5 1.5v10c0 0.825 0.675 1.5 1.5 1.5h13c0.825 0 1.5-0.675 1.5-1.5v-10c0-0.825-0.675-1.5-1.5-1.5zM6.23 8.6l-4.23 3.295v-7.838l4.23 4.543zM2.756 4h10.488l-5.244 3.938-5.244-3.938zM6.395 8.777l1.605 1.723 1.605-1.723 3.29 4.223h-9.79l3.29-4.223zM9.77 8.6l4.23-4.543v7.838l-4.23-3.295z"></path>
</symbol>
<symbol id="icon-clock" viewBox="0 0 16 16">
<path d="M10.293 11.707l-3.293-3.293v-4.414h2v3.586l2.707 2.707zM8 0c-4.418 0-8 3.582-8 8s3.582 8 8 8 8-3.582 8-8-3.582-8-8-8zM8 14c-3.314 0-6-2.686-6-6s2.686-6 6-6c3.314 0 6 2.686 6 6s-2.686 6-6 6z"></path>
</symbol>
<symbol id="icon-clock2" viewBox="0 0 16 16">
<path d="M8 0c-4.418 0-8 3.582-8 8s3.582 8 8 8 8-3.582 8-8-3.582-8-8-8zM10.293 11.707l-3.293-3.293v-4.414h2v3.586l2.707 2.707-1.414 1.414z"></path>
</symbol>
<symbol id="icon-bell" viewBox="0 0 16 16">
<path d="M16.023 12.5c0-4.5-4-3.5-4-7 0-0.29-0.028-0.538-0.079-0.749-0.263-1.766-1.44-3.183-2.965-3.615 0.014-0.062 0.021-0.125 0.021-0.191 0-0.52-0.45-0.945-1-0.945s-1 0.425-1 0.945c0 0.065 0.007 0.129 0.021 0.191-1.71 0.484-2.983 2.208-3.020 4.273-0.001 0.030-0.001 0.060-0.001 0.091 0 3.5-4 2.5-4 7 0 1.191 2.665 2.187 6.234 2.439 0.336 0.631 1.001 1.061 1.766 1.061s1.43-0.43 1.766-1.061c3.568-0.251 6.234-1.248 6.234-2.439 0-0.004-0-0.007-0-0.011l0.024 0.011zM12.91 13.345c-0.847 0.226-1.846 0.389-2.918 0.479-0.089-1.022-0.947-1.824-1.992-1.824s-1.903 0.802-1.992 1.824c-1.072-0.090-2.071-0.253-2.918-0.479-1.166-0.311-1.724-0.659-1.928-0.845 0.204-0.186 0.762-0.534 1.928-0.845 1.356-0.362 3.1-0.561 4.91-0.561s3.554 0.199 4.91 0.561c1.166 0.311 1.724 0.659 1.928 0.845-0.204 0.186-0.762 0.534-1.928 0.845z"></path>
</symbol>
<symbol id="icon-display" viewBox="0 0 16 16">
<path d="M0 1v10h16v-10h-16zM15 10h-14v-8h14v8zM10.5 12h-5l-0.5 2-1 1h8l-1-1z"></path>
</symbol>
<symbol id="icon-mobile2" viewBox="0 0 16 16">
<path d="M12 0h-9c-0.55 0-1 0.45-1 1v14c0 0.55 0.45 1 1 1h9c0.55 0 1-0.45 1-1v-14c0-0.55-0.45-1-1-1zM7.5 15.278c-0.43 0-0.778-0.348-0.778-0.778s0.348-0.778 0.778-0.778 0.778 0.348 0.778 0.778-0.348 0.778-0.778 0.778zM12 13h-9v-11h9v11z"></path>
</symbol>
<symbol id="icon-drawer2" viewBox="0 0 16 16">
<path d="M15.89 10.188l-4-5c-0.095-0.119-0.239-0.188-0.39-0.188h-7c-0.152 0-0.296 0.069-0.39 0.188l-4 5c-0.071 0.089-0.11 0.199-0.11 0.312v4.5c0 0.552 0.448 1 1 1h14c0.552 0 1-0.448 1-1v-4.5c0-0.114-0.039-0.224-0.11-0.312zM15 11h-3.5l-2 2h-3l-2-2h-3.5v-0.325l3.74-4.675h6.519l3.74 4.675v0.325z"></path>
</symbol>
<symbol id="icon-box-add" viewBox="0 0 16 16">
<path d="M13 1h-10l-3 3v10.5c0 0.276 0.224 0.5 0.5 0.5h15c0.276 0 0.5-0.224 0.5-0.5v-10.5l-3-3zM8 13l-5-4h3v-3h4v3h3l-5 4zM2.414 3l1-1h9.172l1 1h-11.172z"></path>
</symbol>
<symbol id="icon-box-remove" viewBox="0 0 16 16">
<path d="M13 1h-10l-3 3v10.5c0 0.276 0.224 0.5 0.5 0.5h15c0.276 0 0.5-0.224 0.5-0.5v-10.5l-3-3zM10 10v3h-4v-3h-3l5-4 5 4h-3zM2.414 3l1-1h9.171l1 1h-11.171z"></path>
</symbol>
<symbol id="icon-floppy-disk" viewBox="0 0 16 16">
<path d="M14 0h-14v16h16v-14l-2-2zM8 2h2v4h-2v-4zM14 14h-12v-12h1v5h9v-5h1.172l0.828 0.828v11.172z"></path>
</symbol>
<symbol id="icon-database" viewBox="0 0 16 16">
<path d="M8 0c-4.418 0-8 1.119-8 2.5v2c0 1.381 3.582 2.5 8 2.5s8-1.119 8-2.5v-2c0-1.381-3.582-2.5-8-2.5z"></path>
<path d="M8 8.5c-4.418 0-8-1.119-8-2.5v3c0 1.381 3.582 2.5 8 2.5s8-1.119 8-2.5v-3c0 1.381-3.582 2.5-8 2.5z"></path>
<path d="M8 13c-4.418 0-8-1.119-8-2.5v3c0 1.381 3.582 2.5 8 2.5s8-1.119 8-2.5v-3c0 1.381-3.582 2.5-8 2.5z"></path>
</symbol>
<symbol id="icon-undo" viewBox="0 0 16 16">
<path d="M8 1c-2.209 0-4.209 0.896-5.657 2.343l-2.343-2.343v6h6l-2.243-2.243c1.086-1.086 2.586-1.757 4.243-1.757 3.314 0 6 2.686 6 6 0 1.792-0.786 3.401-2.032 4.5l1.323 1.5c1.661-1.466 2.709-3.611 2.709-6 0-4.418-3.582-8-8-8z"></path>
</symbol>
<symbol id="icon-redo" viewBox="0 0 16 16">
<path d="M0 9c0 2.389 1.048 4.534 2.709 6l1.323-1.5c-1.246-1.099-2.031-2.708-2.031-4.5 0-3.314 2.686-6 6-6 1.657 0 3.157 0.672 4.243 1.757l-2.243 2.243h6v-6l-2.343 2.343c-1.448-1.448-3.448-2.343-5.657-2.343-4.418 0-8 3.582-8 8z"></path>
</symbol>
<symbol id="icon-bubble" viewBox="0 0 16 16">
<path d="M8 1c4.418 0 8 2.91 8 6.5s-3.582 6.5-8 6.5c-0.424 0-0.841-0.027-1.247-0.079-1.718 1.718-3.77 2.027-5.753 2.072v-0.421c1.071-0.525 2-1.48 2-2.572 0-0.152-0.012-0.302-0.034-0.448-1.809-1.192-2.966-3.012-2.966-5.052 0-3.59 3.582-6.5 8-6.5z"></path>
</symbol>
<symbol id="icon-bubbles" viewBox="0 0 18 16">
<path d="M17 14.081c0 0.711 0.407 1.327 1 1.628v0.249c-0.166 0.023-0.335 0.035-0.508 0.035-1.063 0-2.021-0.446-2.699-1.16-0.41 0.109-0.844 0.168-1.293 0.168-2.485 0-4.5-1.791-4.5-4s2.015-4 4.5-4c2.485 0 4.5 1.791 4.5 4 0 0.865-0.309 1.665-0.834 2.32-0.107 0.232-0.166 0.489-0.166 0.761zM8 0c4.351 0 7.89 2.822 7.997 6.336-0.768-0.343-1.619-0.524-2.497-0.524-1.493 0-2.903 0.523-3.971 1.472-1.107 0.984-1.717 2.304-1.717 3.716 0 0.698 0.149 1.373 0.433 1.997-0.082 0.002-0.164 0.003-0.246 0.003-0.424 0-0.841-0.027-1.247-0.079-1.718 1.718-3.77 2.027-5.753 2.072v-0.421c1.071-0.525 2-1.48 2-2.572 0-0.152-0.012-0.302-0.034-0.448-1.809-1.192-2.966-3.012-2.966-5.052 0-3.59 3.582-6.5 8-6.5z"></path>
</symbol>
<symbol id="icon-user" viewBox="0 0 16 16">
<path d="M9 11.041v-0.825c1.102-0.621 2-2.168 2-3.716 0-2.485 0-4.5-3-4.5s-3 2.015-3 4.5c0 1.548 0.898 3.095 2 3.716v0.825c-3.392 0.277-6 1.944-6 3.959h14c0-2.015-2.608-3.682-6-3.959z"></path>
</symbol>
<symbol id="icon-users" viewBox="0 0 18 16">
<path d="M12 12.041v-0.825c1.102-0.621 2-2.168 2-3.716 0-2.485 0-4.5-3-4.5s-3 2.015-3 4.5c0 1.548 0.898 3.095 2 3.716v0.825c-3.392 0.277-6 1.944-6 3.959h14c0-2.015-2.608-3.682-6-3.959z"></path>
<path d="M5.112 12.427c0.864-0.565 1.939-0.994 3.122-1.256-0.235-0.278-0.449-0.588-0.633-0.922-0.475-0.863-0.726-1.813-0.726-2.748 0-1.344 0-2.614 0.478-3.653 0.464-1.008 1.299-1.633 2.488-1.867-0.264-1.195-0.968-1.98-2.841-1.98-3 0-3 2.015-3 4.5 0 1.548 0.898 3.095 2 3.716v0.825c-3.392 0.277-6 1.944-6 3.959h4.359c0.227-0.202 0.478-0.393 0.753-0.573z"></path>
</symbol>
<symbol id="icon-user-plus" viewBox="0 0 16 16">
<path d="M6 11.5c0-2.363 1.498-4.383 3.594-5.159 0.254-0.571 0.406-1.206 0.406-1.841 0-2.485 0-4.5-3-4.5s-3 2.015-3 4.5c0 1.548 0.898 3.095 2 3.716v0.825c-3.392 0.277-6 1.944-6 3.959h6.208c-0.135-0.477-0.208-0.98-0.208-1.5z"></path>
<path d="M11.5 7c-2.485 0-4.5 2.015-4.5 4.5s2.015 4.5 4.5 4.5c2.485 0 4.5-2.015 4.5-4.5s-2.015-4.5-4.5-4.5zM14 12h-2v2h-1v-2h-2v-1h2v-2h1v2h2v1z"></path>
</symbol>
<symbol id="icon-user-minus" viewBox="0 0 16 16">
<path d="M6 11.5c0-2.363 1.498-4.383 3.594-5.159 0.254-0.571 0.406-1.206 0.406-1.841 0-2.485 0-4.5-3-4.5s-3 2.015-3 4.5c0 1.548 0.898 3.095 2 3.716v0.825c-3.392 0.277-6 1.944-6 3.959h6.208c-0.135-0.477-0.208-0.98-0.208-1.5z"></path>
<path d="M11.5 7c-2.485 0-4.5 2.015-4.5 4.5s2.015 4.5 4.5 4.5c2.485 0 4.5-2.015 4.5-4.5s-2.015-4.5-4.5-4.5zM14 12h-5v-1h5v1z"></path>
</symbol>
<symbol id="icon-user-check" viewBox="0 0 16 16">
<path d="M15 9.5l-4.5 4.5-1.5-1.5-1 1 2.5 2.5 5.5-5.5z"></path>
<path d="M7 12h5v-1.799c-1.050-0.613-2.442-1.033-4-1.16v-0.825c1.102-0.621 2-2.168 2-3.716 0-2.485 0-4.5-3-4.5s-3 2.015-3 4.5c0 1.548 0.898 3.095 2 3.716v0.825c-3.392 0.277-6 1.944-6 3.959h7v-1z"></path>
</symbol>
<symbol id="icon-quotes-left" viewBox="0 0 16 16">
<path d="M3.516 7c1.933 0 3.5 1.567 3.5 3.5s-1.567 3.5-3.5 3.5-3.5-1.567-3.5-3.5l-0.016-0.5c0-3.866 3.134-7 7-7v2c-1.336 0-2.591 0.52-3.536 1.464-0.182 0.182-0.348 0.375-0.497 0.578 0.179-0.028 0.362-0.043 0.548-0.043zM12.516 7c1.933 0 3.5 1.567 3.5 3.5s-1.567 3.5-3.5 3.5-3.5-1.567-3.5-3.5l-0.016-0.5c0-3.866 3.134-7 7-7v2c-1.336 0-2.591 0.52-3.536 1.464-0.182 0.182-0.348 0.375-0.497 0.578 0.179-0.028 0.362-0.043 0.549-0.043z"></path>
</symbol>
<symbol id="icon-quotes-right" viewBox="0 0 16 16">
<path d="M12.5 10c-1.933 0-3.5-1.567-3.5-3.5s1.567-3.5 3.5-3.5 3.5 1.567 3.5 3.5l0.016 0.5c0 3.866-3.134 7-7 7v-2c1.336 0 2.591-0.52 3.536-1.464 0.182-0.182 0.348-0.375 0.497-0.578-0.179 0.028-0.362 0.043-0.549 0.043zM3.5 10c-1.933 0-3.5-1.567-3.5-3.5s1.567-3.5 3.5-3.5 3.5 1.567 3.5 3.5l0.016 0.5c0 3.866-3.134 7-7 7v-2c1.336 0 2.591-0.52 3.536-1.464 0.182-0.182 0.348-0.375 0.497-0.578-0.179 0.028-0.362 0.043-0.549 0.043z"></path>
</symbol>
<symbol id="icon-hour-glass" viewBox="0 0 16 16">
<path d="M11.39 8c2.152-1.365 3.61-3.988 3.61-7 0-0.339-0.019-0.672-0.054-1h-13.891c-0.036 0.328-0.054 0.661-0.054 1 0 3.012 1.457 5.635 3.609 7-2.152 1.365-3.609 3.988-3.609 7 0 0.339 0.019 0.672 0.054 1h13.891c0.036-0.328 0.054-0.661 0.054-1 0-3.012-1.457-5.635-3.609-7zM2.5 15c0-2.921 1.253-5.397 3.5-6.214v-1.572c-2.247-0.817-3.5-3.294-3.5-6.214v0h11c0 2.921-1.253 5.397-3.5 6.214v1.572c2.247 0.817 3.5 3.294 3.5 6.214h-11zM9.682 10.462c-1.12-0.635-1.181-1.459-1.182-1.959v-1.004c0-0.5 0.059-1.327 1.184-1.963 0.602-0.349 1.122-0.88 1.516-1.537h-6.4c0.395 0.657 0.916 1.188 1.518 1.538 1.12 0.635 1.181 1.459 1.182 1.959v1.004c0 0.5-0.059 1.327-1.184 1.963-1.135 0.659-1.98 1.964-2.236 3.537h7.839c-0.256-1.574-1.102-2.879-2.238-3.538z"></path>
</symbol>
<symbol id="icon-spinner11" viewBox="0 0 16 16">
<path d="M16 6h-6l2.243-2.243c-1.133-1.133-2.64-1.757-4.243-1.757s-3.109 0.624-4.243 1.757c-1.133 1.133-1.757 2.64-1.757 4.243s0.624 3.109 1.757 4.243c1.133 1.133 2.64 1.757 4.243 1.757s3.109-0.624 4.243-1.757c0.095-0.095 0.185-0.192 0.273-0.292l1.505 1.317c-1.466 1.674-3.62 2.732-6.020 2.732-4.418 0-8-3.582-8-8s3.582-8 8-8c2.209 0 4.209 0.896 5.656 2.344l2.343-2.344v6z"></path>
</symbol>
<symbol id="icon-search" viewBox="0 0 16 16">
<path d="M15.504 13.616l-3.79-3.223c-0.392-0.353-0.811-0.514-1.149-0.499 0.895-1.048 1.435-2.407 1.435-3.893 0-3.314-2.686-6-6-6s-6 2.686-6 6 2.686 6 6 6c1.486 0 2.845-0.54 3.893-1.435-0.016 0.338 0.146 0.757 0.499 1.149l3.223 3.79c0.552 0.613 1.453 0.665 2.003 0.115s0.498-1.452-0.115-2.003zM6 10c-2.209 0-4-1.791-4-4s1.791-4 4-4 4 1.791 4 4-1.791 4-4 4z"></path>
</symbol>
<symbol id="icon-zoom-in" viewBox="0 0 16 16">
<path d="M15.504 13.616l-3.79-3.223c-0.392-0.353-0.811-0.514-1.149-0.499 0.895-1.048 1.435-2.407 1.435-3.893 0-3.314-2.686-6-6-6s-6 2.686-6 6 2.686 6 6 6c1.486 0 2.845-0.54 3.893-1.435-0.016 0.338 0.146 0.757 0.499 1.149l3.223 3.79c0.552 0.613 1.453 0.665 2.003 0.115s0.498-1.452-0.115-2.003zM6 10c-2.209 0-4-1.791-4-4s1.791-4 4-4 4 1.791 4 4-1.791 4-4 4zM7 3h-2v2h-2v2h2v2h2v-2h2v-2h-2z"></path>
</symbol>
<symbol id="icon-zoom-out" viewBox="0 0 16 16">
<path d="M15.504 13.616l-3.79-3.223c-0.392-0.353-0.811-0.514-1.149-0.499 0.895-1.048 1.435-2.407 1.435-3.893 0-3.314-2.686-6-6-6s-6 2.686-6 6 2.686 6 6 6c1.486 0 2.845-0.54 3.893-1.435-0.016 0.338 0.146 0.757 0.499 1.149l3.223 3.79c0.552 0.613 1.453 0.665 2.003 0.115s0.498-1.452-0.115-2.003zM6 10c-2.209 0-4-1.791-4-4s1.791-4 4-4 4 1.791 4 4-1.791 4-4 4zM3 5h6v2h-6z"></path>
</symbol>
<symbol id="icon-enlarge" viewBox="0 0 16 16">
<path d="M16 0h-6.5l2.5 2.5-3 3 1.5 1.5 3-3 2.5 2.5z"></path>
<path d="M16 16v-6.5l-2.5 2.5-3-3-1.5 1.5 3 3-2.5 2.5z"></path>
<path d="M0 16h6.5l-2.5-2.5 3-3-1.5-1.5-3 3-2.5-2.5z"></path>
<path d="M0 0v6.5l2.5-2.5 3 3 1.5-1.5-3-3 2.5-2.5z"></path>
</symbol>
<symbol id="icon-lock" viewBox="0 0 16 16">
<path d="M9.25 7h-0.25v-3c0-1.654-1.346-3-3-3h-2c-1.654 0-3 1.346-3 3v3h-0.25c-0.412 0-0.75 0.338-0.75 0.75v7.5c0 0.412 0.338 0.75 0.75 0.75h8.5c0.412 0 0.75-0.338 0.75-0.75v-7.5c0-0.412-0.338-0.75-0.75-0.75zM3 4c0-0.551 0.449-1 1-1h2c0.551 0 1 0.449 1 1v3h-4v-3z"></path>
</symbol>
<symbol id="icon-unlocked" viewBox="0 0 16 16">
<path d="M12 1c1.654 0 3 1.346 3 3v3h-2v-3c0-0.551-0.449-1-1-1h-2c-0.551 0-1 0.449-1 1v3h0.25c0.412 0 0.75 0.338 0.75 0.75v7.5c0 0.412-0.338 0.75-0.75 0.75h-8.5c-0.412 0-0.75-0.338-0.75-0.75v-7.5c0-0.412 0.338-0.75 0.75-0.75h6.25v-3c0-1.654 1.346-3 3-3h2z"></path>
</symbol>
<symbol id="icon-cog" viewBox="0 0 16 16">
<path d="M14.59 9.535c-0.839-1.454-0.335-3.317 1.127-4.164l-1.572-2.723c-0.449 0.263-0.972 0.414-1.529 0.414-1.68 0-3.042-1.371-3.042-3.062h-3.145c0.004 0.522-0.126 1.051-0.406 1.535-0.839 1.454-2.706 1.948-4.17 1.106l-1.572 2.723c0.453 0.257 0.845 0.634 1.123 1.117 0.838 1.452 0.336 3.311-1.12 4.16l1.572 2.723c0.448-0.261 0.967-0.41 1.522-0.41 1.675 0 3.033 1.362 3.042 3.046h3.145c-0.001-0.517 0.129-1.040 0.406-1.519 0.838-1.452 2.7-1.947 4.163-1.11l1.572-2.723c-0.45-0.257-0.839-0.633-1.116-1.113zM8 11.24c-1.789 0-3.24-1.45-3.24-3.24s1.45-3.24 3.24-3.24c1.789 0 3.24 1.45 3.24 3.24s-1.45 3.24-3.24 3.24z"></path>
</symbol>
<symbol id="icon-bug" viewBox="0 0 16 16">
<path d="M16 9v-1h-3.020c-0.092-1.136-0.497-2.172-1.12-3.004h2.53l1.095-4.379-0.97-0.243-0.905 3.621h-2.729c-0.014-0.011-0.028-0.021-0.042-0.032 0.105-0.305 0.162-0.632 0.162-0.972 0-1.653-1.343-2.992-3-2.992s-3 1.34-3 2.992c0 0.34 0.057 0.667 0.162 0.972-0.014 0.011-0.028 0.021-0.042 0.032h-2.729l-0.905-3.621-0.97 0.243 1.095 4.379h2.53c-0.623 0.832-1.028 1.868-1.12 3.004h-3.020v1h3.021c0.059 0.713 0.242 1.388 0.526 1.996h-1.937l-1.095 4.379 0.97 0.243 0.905-3.621h1.756c0.917 1.219 2.303 1.996 3.854 1.996s2.937-0.777 3.854-1.996h1.756l0.905 3.621 0.97-0.243-1.095-4.379h-1.937c0.283-0.608 0.466-1.283 0.526-1.996h3.021z"></path>
</symbol>
<symbol id="icon-pie-chart" viewBox="0 0 16 16">
<path d="M7 9v-7c-3.866 0-7 3.134-7 7s3.134 7 7 7 7-3.134 7-7c0-1.126-0.266-2.189-0.738-3.131l-6.262 3.131zM14.262 3.869c-1.149-2.294-3.521-3.869-6.262-3.869v7l6.262-3.131z"></path>
</symbol>
<symbol id="icon-stats-dots" viewBox="0 0 16 16">
<path d="M2 14h14v2h-16v-16h2zM4.5 13c-0.828 0-1.5-0.672-1.5-1.5s0.672-1.5 1.5-1.5c0.044 0 0.088 0.002 0.131 0.006l1.612-2.687c-0.154-0.235-0.243-0.517-0.243-0.819 0-0.828 0.672-1.5 1.5-1.5s1.5 0.672 1.5 1.5c0 0.302-0.090 0.583-0.243 0.819l1.612 2.687c0.043-0.004 0.087-0.006 0.131-0.006 0.033 0 0.066 0.001 0.099 0.004l2.662-4.658c-0.165-0.241-0.261-0.532-0.261-0.845 0-0.828 0.672-1.5 1.5-1.5s1.5 0.672 1.5 1.5c0 0.828-0.672 1.5-1.5 1.5-0.033 0-0.066-0.001-0.099-0.004l-2.662 4.658c0.165 0.241 0.261 0.532 0.261 0.845 0 0.828-0.672 1.5-1.5 1.5s-1.5-0.672-1.5-1.5c0-0.302 0.090-0.583 0.243-0.819l-1.612-2.687c-0.043 0.004-0.087 0.006-0.131 0.006s-0.088-0.002-0.131-0.006l-1.612 2.687c0.154 0.235 0.243 0.517 0.243 0.819 0 0.828-0.672 1.5-1.5 1.5z"></path>
</symbol>
<symbol id="icon-stats-bars" viewBox="0 0 16 16">
<path d="M0 13h16v2h-16zM2 9h2v3h-2zM5 5h2v7h-2zM8 8h2v4h-2zM11 2h2v10h-2z"></path>
</symbol>
<symbol id="icon-trophy" viewBox="0 0 16 16">
<path d="M13 3v-2h-10v2h-3v2c0 1.657 1.343 3 3 3 0.314 0 0.616-0.048 0.9-0.138 0.721 1.031 1.822 1.778 3.1 2.037v3.1h-1c-1.105 0-2 0.895-2 2h8c0-1.105-0.895-2-2-2h-1v-3.1c1.278-0.259 2.378-1.006 3.1-2.037 0.284 0.089 0.587 0.138 0.9 0.138 1.657 0 3-1.343 3-3v-2h-3zM3 6.813c-0.999 0-1.813-0.813-1.813-1.813v-1h1.813v1c0 0.628 0.116 1.229 0.327 1.782-0.106 0.019-0.216 0.030-0.327 0.030zM14.813 5c0 0.999-0.813 1.813-1.813 1.813-0.112 0-0.221-0.011-0.327-0.030 0.211-0.554 0.327-1.154 0.327-1.782v-1h1.813v1z"></path>
</symbol>
<symbol id="icon-gift" viewBox="0 0 16 16">
<path d="M12.055 5c0.283-0.201 0.555-0.425 0.804-0.674 0.522-0.522 0.871-1.164 0.983-1.808 0.123-0.706-0.057-1.362-0.494-1.798-0.348-0.348-0.82-0.533-1.365-0.533-0.775 0-1.593 0.372-2.242 1.021-1.039 1.039-1.644 2.472-1.97 3.496-0.241-1.028-0.722-2.416-1.657-3.351-0.501-0.501-1.142-0.759-1.748-0.759-0.495 0-0.965 0.172-1.317 0.523-0.781 0.781-0.675 2.153 0.236 3.064 0.325 0.325 0.705 0.595 1.105 0.819h-3.391v4h1v7h12v-7h1v-4h-2.945zM10.536 2.003c0.433-0.433 0.974-0.692 1.446-0.692 0.167 0 0.402 0.035 0.57 0.203 0.407 0.407 0.178 1.349-0.489 2.016-0.687 0.687-1.61 1.159-2.413 1.47h-0.792c0.29-0.899 0.813-2.132 1.678-2.997zM3.655 2.514c-0.011-0.143-0.001-0.41 0.191-0.601 0.16-0.16 0.372-0.194 0.521-0.194v0c0.332 0 0.679 0.157 0.952 0.429 0.529 0.529 0.965 1.371 1.26 2.436 0.008 0.029 0.016 0.057 0.023 0.086-0.028-0.008-0.057-0.015-0.086-0.023-1.064-0.295-1.906-0.731-2.436-1.26-0.247-0.247-0.403-0.565-0.426-0.872zM7 15h-4v-6.5h4v6.5zM7 8h-5v-2h5v2zM13 15h-4v-6.5h4v6.5zM14 8h-5v-2h5v2z"></path>
</symbol>
<symbol id="icon-bin" viewBox="0 0 16 16">
<path d="M2 5v10c0 0.55 0.45 1 1 1h9c0.55 0 1-0.45 1-1v-10h-11zM5 14h-1v-7h1v7zM7 14h-1v-7h1v7zM9 14h-1v-7h1v7zM11 14h-1v-7h1v7z"></path>
<path d="M13.25 2h-3.25v-1.25c0-0.412-0.338-0.75-0.75-0.75h-3.5c-0.412 0-0.75 0.338-0.75 0.75v1.25h-3.25c-0.413 0-0.75 0.337-0.75 0.75v1.25h13v-1.25c0-0.413-0.338-0.75-0.75-0.75zM9 2h-3v-0.987h3v0.987z"></path>
</symbol>
<symbol id="icon-switch" viewBox="0 0 16 16">
<path d="M10 2.29v2.124c0.566 0.247 1.086 0.6 1.536 1.050 0.944 0.944 1.464 2.2 1.464 3.536s-0.52 2.591-1.464 3.536c-0.944 0.944-2.2 1.464-3.536 1.464s-2.591-0.52-3.536-1.464c-0.944-0.944-1.464-2.2-1.464-3.536s0.52-2.591 1.464-3.536c0.45-0.45 0.97-0.803 1.536-1.050v-2.124c-2.891 0.861-5 3.539-5 6.71 0 3.866 3.134 7 7 7s7-3.134 7-7c0-3.171-2.109-5.849-5-6.71zM7 0h2v8h-2z"></path>
</symbol>
<symbol id="icon-list-numbered" viewBox="0 0 16 16">
<path d="M6 13h10v2h-10zM6 7h10v2h-10zM6 1h10v2h-10zM3 0v4h-1v-3h-1v-1zM2 8.219v0.781h2v1h-3v-2.281l2-0.938v-0.781h-2v-1h3v2.281zM4 11v5h-3v-1h2v-1h-2v-1h2v-1h-2v-1z"></path>
</symbol>
<symbol id="icon-list" viewBox="0 0 16 16">
<path d="M0 0h4v4h-4zM6 1h10v2h-10zM0 6h4v4h-4zM6 7h10v2h-10zM0 12h4v4h-4zM6 13h10v2h-10z"></path>
</symbol>
<symbol id="icon-list2" viewBox="0 0 16 16">
<path d="M6 1h10v2h-10v-2zM6 7h10v2h-10v-2zM6 13h10v2h-10v-2zM0 2c0-1.105 0.895-2 2-2s2 0.895 2 2c0 1.105-0.895 2-2 2s-2-0.895-2-2zM0 8c0-1.105 0.895-2 2-2s2 0.895 2 2c0 1.105-0.895 2-2 2s-2-0.895-2-2zM0 14c0-1.105 0.895-2 2-2s2 0.895 2 2c0 1.105-0.895 2-2 2s-2-0.895-2-2z"></path>
</symbol>
<symbol id="icon-tree" viewBox="0 0 16 16">
<path d="M15.25 12h-0.25v-3.25c0-0.965-0.785-1.75-1.75-1.75h-4.25v-2h0.25c0.412 0 0.75-0.338 0.75-0.75v-2.5c0-0.413-0.338-0.75-0.75-0.75h-2.5c-0.412 0-0.75 0.337-0.75 0.75v2.5c0 0.412 0.338 0.75 0.75 0.75h0.25v2h-4.25c-0.965 0-1.75 0.785-1.75 1.75v3.25h-0.25c-0.412 0-0.75 0.338-0.75 0.75v2.5c0 0.412 0.338 0.75 0.75 0.75h2.5c0.413 0 0.75-0.338 0.75-0.75v-2.5c0-0.412-0.337-0.75-0.75-0.75h-0.25v-3h4v3h-0.25c-0.412 0-0.75 0.338-0.75 0.75v2.5c0 0.412 0.338 0.75 0.75 0.75h2.5c0.412 0 0.75-0.338 0.75-0.75v-2.5c0-0.412-0.338-0.75-0.75-0.75h-0.25v-3h4v3h-0.25c-0.412 0-0.75 0.338-0.75 0.75v2.5c0 0.412 0.338 0.75 0.75 0.75h2.5c0.412 0 0.75-0.338 0.75-0.75v-2.5c0-0.412-0.338-0.75-0.75-0.75zM3 15h-2v-2h2v2zM9 15h-2v-2h2v2zM7 4v-2h2v2h-2zM15 15h-2v-2h2v2z"></path>
</symbol>
<symbol id="icon-menu" viewBox="0 0 16 16">
<path d="M1 3h14v3h-14zM1 7h14v3h-14zM1 11h14v3h-14z"></path>
</symbol>
<symbol id="icon-cloud" viewBox="0 0 16 16">
<path d="M16 10.274c0-1.283-0.886-2.358-2.078-2.648-0.051-2.011-1.695-3.626-3.717-3.626-1.184 0-2.239 0.555-2.92 1.418-0.382-0.494-0.98-0.812-1.652-0.812-1.153 0-2.088 0.936-2.088 2.089 0 0.101 0.007 0.199 0.021 0.296-0.175-0.032-0.356-0.049-0.54-0.049-1.672-0-3.027 1.356-3.027 3.029s1.355 3.029 3.027 3.029l10.254-0c1.502-0.003 2.719-1.222 2.719-2.726z"></path>
</symbol>
<symbol id="icon-cloud-download" viewBox="0 0 16 16">
<path d="M13.922 5.626c-0.051-2.011-1.695-3.626-3.717-3.626-1.184 0-2.239 0.555-2.92 1.418-0.382-0.494-0.98-0.812-1.652-0.812-1.153 0-2.088 0.936-2.088 2.089 0 0.101 0.007 0.199 0.021 0.296-0.175-0.032-0.356-0.049-0.54-0.049-1.672-0-3.027 1.356-3.027 3.029s1.355 3.029 3.027 3.029h1.434l3.539 3.664 3.539-3.664 1.742-0c1.502-0.003 2.719-1.222 2.719-2.726 0-1.283-0.886-2.358-2.078-2.648zM8 13l-3-3h2v-3h2v3h2l-3 3z"></path>
</symbol>
<symbol id="icon-cloud-upload" viewBox="0 0 16 16">
<path d="M13.942 6.039c0.038-0.174 0.058-0.354 0.058-0.539 0-1.381-1.119-2.5-2.5-2.5-0.222 0-0.438 0.029-0.643 0.084-0.387-1.209-1.52-2.084-2.857-2.084-1.365 0-2.516 0.911-2.88 2.159-0.355-0.103-0.731-0.159-1.12-0.159-2.209 0-4 1.791-4 4s1.791 4 4 4h2v3h4v-3h3.5c1.381 0 2.5-1.119 2.5-2.5 0-1.23-0.888-2.253-2.058-2.461zM9 10v3h-2v-3h-2.5l3.5-3.5 3.5 3.5h-2.5z"></path>
</symbol>
<symbol id="icon-sphere" viewBox="0 0 16 16">
<path d="M7.5 1c-4.142 0-7.5 3.358-7.5 7.5s3.358 7.5 7.5 7.5c4.142 0 7.5-3.358 7.5-7.5s-3.358-7.5-7.5-7.5zM11.744 11c0.134-0.632 0.219-1.303 0.246-2h1.991c-0.052 0.691-0.213 1.361-0.479 2h-1.758zM3.256 6c-0.134 0.632-0.219 1.303-0.246 2h-1.991c0.052-0.691 0.213-1.361 0.479-2h1.758zM10.719 6c0.15 0.64 0.241 1.31 0.27 2h-2.989v-2h2.719zM8 5v-2.927c0.228 0.066 0.454 0.178 0.675 0.334 0.415 0.293 0.813 0.744 1.149 1.304 0.233 0.388 0.434 0.819 0.601 1.289h-2.426zM5.176 3.711c0.336-0.561 0.734-1.012 1.149-1.304 0.222-0.156 0.447-0.268 0.675-0.334v2.927h-2.426c0.168-0.47 0.369-0.901 0.601-1.289zM7 6v2h-2.989c0.029-0.69 0.12-1.36 0.27-2h2.719zM1.498 11c-0.266-0.639-0.427-1.309-0.479-2h1.991c0.028 0.697 0.112 1.368 0.246 2h-1.758zM4.011 9h2.989v2h-2.719c-0.15-0.64-0.241-1.31-0.27-2zM7 12v2.927c-0.228-0.066-0.454-0.178-0.675-0.334-0.415-0.293-0.813-0.744-1.149-1.304-0.233-0.388-0.434-0.819-0.602-1.289h2.426zM9.825 13.289c-0.336 0.561-0.734 1.012-1.149 1.304-0.222 0.156-0.447 0.268-0.675 0.334v-2.927h2.426c-0.168 0.47-0.369 0.901-0.602 1.289zM8 11v-2h2.989c-0.029 0.69-0.12 1.36-0.27 2h-2.719zM11.99 8c-0.028-0.697-0.112-1.368-0.246-2h1.758c0.267 0.639 0.427 1.309 0.479 2h-1.991zM12.979 5h-1.498c-0.291-0.918-0.693-1.723-1.177-2.366 0.665 0.318 1.267 0.744 1.792 1.27 0.336 0.336 0.631 0.702 0.883 1.096zM2.904 3.904c0.526-0.526 1.128-0.952 1.792-1.27-0.483 0.643-0.886 1.448-1.177 2.366h-1.498c0.252-0.394 0.547-0.761 0.883-1.096zM2.021 12h1.498c0.291 0.918 0.693 1.723 1.177 2.366-0.665-0.318-1.267-0.744-1.792-1.27-0.336-0.336-0.631-0.702-0.883-1.096zM12.096 13.096c-0.526 0.526-1.128 0.952-1.792 1.27 0.483-0.643 0.886-1.448 1.177-2.366h1.498c-0.252 0.394-0.547 0.761-0.883 1.096z"></path>
</symbol>
<symbol id="icon-link" viewBox="0 0 16 16">
<path d="M6.879 9.934c-0.208 0-0.416-0.079-0.575-0.238-1.486-1.486-1.486-3.905 0-5.392l3-3c0.72-0.72 1.678-1.117 2.696-1.117s1.976 0.397 2.696 1.117c1.486 1.487 1.486 3.905 0 5.392l-1.371 1.371c-0.317 0.317-0.832 0.317-1.149 0s-0.317-0.832 0-1.149l1.371-1.371c0.853-0.853 0.853-2.241 0-3.094-0.413-0.413-0.963-0.641-1.547-0.641s-1.134 0.228-1.547 0.641l-3 3c-0.853 0.853-0.853 2.241 0 3.094 0.317 0.317 0.317 0.832 0 1.149-0.159 0.159-0.367 0.238-0.575 0.238z"></path>
<path d="M4 15.813c-1.018 0-1.976-0.397-2.696-1.117-1.486-1.486-1.486-3.905 0-5.392l1.371-1.371c0.317-0.317 0.832-0.317 1.149 0s0.317 0.832 0 1.149l-1.371 1.371c-0.853 0.853-0.853 2.241 0 3.094 0.413 0.413 0.962 0.641 1.547 0.641s1.134-0.228 1.547-0.641l3-3c0.853-0.853 0.853-2.241 0-3.094-0.317-0.317-0.317-0.832 0-1.149s0.832-0.317 1.149 0c1.486 1.486 1.486 3.905 0 5.392l-3 3c-0.72 0.72-1.678 1.117-2.696 1.117z"></path>
</symbol>
<symbol id="icon-attachment" viewBox="0 0 16 16">
<path d="M10.404 5.11l-1.015-1.014-5.075 5.074c-0.841 0.841-0.841 2.204 0 3.044s2.204 0.841 3.045 0l6.090-6.089c1.402-1.401 1.402-3.673 0-5.074s-3.674-1.402-5.075 0l-6.394 6.393c-0.005 0.005-0.010 0.009-0.014 0.013-1.955 1.955-1.955 5.123 0 7.077s5.123 1.954 7.078 0c0.004-0.004 0.008-0.009 0.013-0.014l0.001 0.001 4.365-4.364-1.015-1.014-4.365 4.363c-0.005 0.004-0.009 0.009-0.013 0.013-1.392 1.392-3.656 1.392-5.048 0s-1.392-3.655 0-5.047c0.005-0.005 0.009-0.009 0.014-0.013l-0.001-0.001 6.395-6.393c0.839-0.84 2.205-0.84 3.045 0s0.839 2.205 0 3.044l-6.090 6.089c-0.28 0.28-0.735 0.28-1.015 0s-0.28-0.735 0-1.014l5.075-5.075z"></path>
</symbol>
<symbol id="icon-eye" viewBox="0 0 16 16">
<path d="M8 3c-3.489 0-6.514 2.032-8 5 1.486 2.968 4.511 5 8 5s6.514-2.032 8-5c-1.486-2.968-4.511-5-8-5zM11.945 5.652c0.94 0.6 1.737 1.403 2.335 2.348-0.598 0.946-1.395 1.749-2.335 2.348-1.181 0.753-2.545 1.152-3.944 1.152s-2.763-0.398-3.945-1.152c-0.94-0.6-1.737-1.403-2.335-2.348 0.598-0.946 1.395-1.749 2.335-2.348 0.061-0.039 0.123-0.077 0.185-0.114-0.156 0.427-0.241 0.888-0.241 1.369 0 2.209 1.791 4 4 4s4-1.791 4-4c0-0.481-0.085-0.942-0.241-1.369 0.062 0.037 0.124 0.075 0.185 0.114v0zM8 6.5c0 0.828-0.672 1.5-1.5 1.5s-1.5-0.672-1.5-1.5 0.672-1.5 1.5-1.5 1.5 0.672 1.5 1.5z"></path>
</symbol>
<symbol id="icon-eye-plus" viewBox="0 0 16 16">
<path d="M16 2h-2v-2h-2v2h-2v2h2v2h2v-2h2z"></path>
<path d="M13.498 6.969c0.288 0.32 0.55 0.665 0.782 1.031-0.598 0.946-1.395 1.749-2.335 2.348-1.181 0.753-2.545 1.152-3.944 1.152s-2.763-0.398-3.945-1.152c-0.94-0.6-1.736-1.403-2.335-2.348 0.598-0.946 1.395-1.749 2.335-2.348 0.061-0.039 0.123-0.077 0.185-0.114-0.156 0.427-0.241 0.888-0.241 1.369 0 2.209 1.791 4 4 4s4-1.791 4-4c0-0.011-0-0.022-0-0.032-1.708-0.44-2.973-1.979-2.999-3.817-0.329-0.037-0.662-0.057-1.001-0.057-3.489 0-6.514 2.032-8 5 1.486 2.968 4.511 5 8 5s6.514-2.032 8-5c-0.276-0.55-0.604-1.069-0.979-1.548-0.457 0.268-0.973 0.449-1.523 0.517zM6.5 5c0.828 0 1.5 0.672 1.5 1.5s-0.672 1.5-1.5 1.5-1.5-0.672-1.5-1.5 0.672-1.5 1.5-1.5z"></path>
</symbol>
<symbol id="icon-eye-minus" viewBox="0 0 16 16">
<path d="M10 2h6v2h-6v-2z"></path>
<path d="M13.599 5h-4.599v-1.944c-0.328-0.037-0.662-0.056-1-0.056-3.489 0-6.514 2.032-8 5 1.486 2.968 4.511 5 8 5s6.514-2.032 8-5c-0.584-1.167-1.407-2.189-2.401-3zM6.5 5c0.828 0 1.5 0.672 1.5 1.5s-0.672 1.5-1.5 1.5-1.5-0.672-1.5-1.5 0.672-1.5 1.5-1.5zM11.944 10.348c-1.181 0.753-2.545 1.152-3.944 1.152s-2.763-0.398-3.945-1.152c-0.94-0.6-1.736-1.403-2.335-2.348 0.598-0.946 1.395-1.749 2.335-2.348 0.061-0.039 0.123-0.077 0.185-0.114-0.156 0.427-0.241 0.888-0.241 1.369 0 2.209 1.791 4 4 4s4-1.791 4-4c0-0.481-0.085-0.942-0.241-1.369 0.062 0.037 0.124 0.075 0.185 0.114 0.94 0.6 1.737 1.403 2.335 2.348-0.598 0.946-1.395 1.749-2.335 2.348z"></path>
</symbol>
<symbol id="icon-eye-blocked" viewBox="0 0 16 16">
<path d="M14.78 0.22c-0.293-0.293-0.768-0.293-1.061 0l-3.159 3.159c-0.812-0.246-1.671-0.378-2.561-0.378-3.489 0-6.514 2.032-8 5 0.643 1.283 1.573 2.391 2.703 3.236l-2.484 2.484c-0.293 0.293-0.293 0.768 0 1.061 0.146 0.146 0.338 0.22 0.53 0.22s0.384-0.073 0.53-0.22l13.5-13.5c0.293-0.293 0.293-0.768 0-1.061zM6.5 5c0.66 0 1.22 0.426 1.421 1.019l-1.902 1.902c-0.592-0.201-1.019-0.761-1.019-1.421 0-0.828 0.672-1.5 1.5-1.5zM1.721 8c0.598-0.946 1.395-1.749 2.335-2.348 0.061-0.039 0.123-0.077 0.185-0.114-0.156 0.427-0.241 0.888-0.241 1.369 0 0.858 0.27 1.652 0.73 2.303l-0.952 0.952c-0.819-0.576-1.519-1.311-2.057-2.162z"></path>
<path d="M12 6.906c0-0.424-0.066-0.833-0.189-1.217l-5.028 5.028c0.384 0.123 0.793 0.189 1.217 0.189 2.209 0 4-1.791 4-4z"></path>
<path d="M12.969 4.531l-1.084 1.084c0.020 0.012 0.040 0.024 0.059 0.037 0.94 0.6 1.737 1.403 2.335 2.348-0.598 0.946-1.395 1.749-2.335 2.348-1.181 0.753-2.545 1.152-3.944 1.152-0.604 0-1.202-0.074-1.781-0.219l-1.201 1.201c0.933 0.335 1.937 0.518 2.982 0.518 3.489 0 6.514-2.032 8-5-0.703-1.405-1.752-2.6-3.031-3.469z"></path>
</symbol>
<symbol id="icon-warning" viewBox="0 0 16 16">
<path d="M8 1.45l6.705 13.363h-13.409l6.705-13.363zM8 0c-0.345 0-0.69 0.233-0.951 0.698l-6.829 13.611c-0.523 0.93-0.078 1.691 0.989 1.691h13.583c1.067 0 1.512-0.761 0.989-1.691h0l-6.829-13.611c-0.262-0.465-0.606-0.698-0.951-0.698v0z"></path>
<path d="M9 13c0 0.552-0.448 1-1 1s-1-0.448-1-1c0-0.552 0.448-1 1-1s1 0.448 1 1z"></path>
<path d="M8 11c-0.552 0-1-0.448-1-1v-3c0-0.552 0.448-1 1-1s1 0.448 1 1v3c0 0.552-0.448 1-1 1z"></path>
</symbol>
<symbol id="icon-question" viewBox="0 0 16 16">
<path d="M7 11h2v2h-2zM11 4c0.552 0 1 0.448 1 1v3l-3 2h-2v-1l3-2v-1h-5v-2h6zM8 1.5c-1.736 0-3.369 0.676-4.596 1.904s-1.904 2.86-1.904 4.596c0 1.736 0.676 3.369 1.904 4.596s2.86 1.904 4.596 1.904c1.736 0 3.369-0.676 4.596-1.904s1.904-2.86 1.904-4.596c0-1.736-0.676-3.369-1.904-4.596s-2.86-1.904-4.596-1.904zM8 0v0c4.418 0 8 3.582 8 8s-3.582 8-8 8c-4.418 0-8-3.582-8-8s3.582-8 8-8z"></path>
</symbol>
<symbol id="icon-plus" viewBox="0 0 16 16">
<path d="M15.5 6h-5.5v-5.5c0-0.276-0.224-0.5-0.5-0.5h-3c-0.276 0-0.5 0.224-0.5 0.5v5.5h-5.5c-0.276 0-0.5 0.224-0.5 0.5v3c0 0.276 0.224 0.5 0.5 0.5h5.5v5.5c0 0.276 0.224 0.5 0.5 0.5h3c0.276 0 0.5-0.224 0.5-0.5v-5.5h5.5c0.276 0 0.5-0.224 0.5-0.5v-3c0-0.276-0.224-0.5-0.5-0.5z"></path>
</symbol>
<symbol id="icon-minus" viewBox="0 0 16 16">
<path d="M0 6.5v3c0 0.276 0.224 0.5 0.5 0.5h15c0.276 0 0.5-0.224 0.5-0.5v-3c0-0.276-0.224-0.5-0.5-0.5h-15c-0.276 0-0.5 0.224-0.5 0.5z"></path>
</symbol>
<symbol id="icon-info" viewBox="0 0 16 16">
<path d="M7 4.75c0-0.412 0.338-0.75 0.75-0.75h0.5c0.412 0 0.75 0.338 0.75 0.75v0.5c0 0.412-0.338 0.75-0.75 0.75h-0.5c-0.412 0-0.75-0.338-0.75-0.75v-0.5z"></path>
<path d="M10 12h-4v-1h1v-3h-1v-1h3v4h1z"></path>
<path d="M8 0c-4.418 0-8 3.582-8 8s3.582 8 8 8 8-3.582 8-8-3.582-8-8-8zM8 14.5c-3.59 0-6.5-2.91-6.5-6.5s2.91-6.5 6.5-6.5 6.5 2.91 6.5 6.5-2.91 6.5-6.5 6.5z"></path>
</symbol>
<symbol id="icon-cancel-circle" viewBox="0 0 16 16">
<path d="M8 0c-4.418 0-8 3.582-8 8s3.582 8 8 8 8-3.582 8-8-3.582-8-8-8zM8 14.5c-3.59 0-6.5-2.91-6.5-6.5s2.91-6.5 6.5-6.5 6.5 2.91 6.5 6.5-2.91 6.5-6.5 6.5z"></path>
<path d="M10.5 4l-2.5 2.5-2.5-2.5-1.5 1.5 2.5 2.5-2.5 2.5 1.5 1.5 2.5-2.5 2.5 2.5 1.5-1.5-2.5-2.5 2.5-2.5z"></path>
</symbol>
<symbol id="icon-blocked" viewBox="0 0 16 16">
<path d="M13.657 2.343c-1.511-1.511-3.52-2.343-5.657-2.343s-4.146 0.832-5.657 2.343c-1.511 1.511-2.343 3.52-2.343 5.657s0.832 4.146 2.343 5.657c1.511 1.511 3.52 2.343 5.657 2.343s4.146-0.832 5.657-2.343c1.511-1.511 2.343-3.52 2.343-5.657s-0.832-4.146-2.343-5.657zM14 8c0 1.294-0.412 2.494-1.111 3.475l-8.364-8.364c0.981-0.699 2.181-1.111 3.475-1.111 3.308 0 6 2.692 6 6zM2 8c0-1.294 0.412-2.494 1.111-3.475l8.364 8.364c-0.981 0.699-2.181 1.111-3.475 1.111-3.308 0-6-2.692-6-6z"></path>
</symbol>
<symbol id="icon-cross" viewBox="0 0 16 16">
<path d="M15.854 12.854c-0-0-0-0-0-0l-4.854-4.854 4.854-4.854c0-0 0-0 0-0 0.052-0.052 0.090-0.113 0.114-0.178 0.066-0.178 0.028-0.386-0.114-0.529l-2.293-2.293c-0.143-0.143-0.351-0.181-0.529-0.114-0.065 0.024-0.126 0.062-0.178 0.114 0 0-0 0-0 0l-4.854 4.854-4.854-4.854c-0-0-0-0-0-0-0.052-0.052-0.113-0.090-0.178-0.114-0.178-0.066-0.386-0.029-0.529 0.114l-2.293 2.293c-0.143 0.143-0.181 0.351-0.114 0.529 0.024 0.065 0.062 0.126 0.114 0.178 0 0 0 0 0 0l4.854 4.854-4.854 4.854c-0 0-0 0-0 0-0.052 0.052-0.090 0.113-0.114 0.178-0.066 0.178-0.029 0.386 0.114 0.529l2.293 2.293c0.143 0.143 0.351 0.181 0.529 0.114 0.065-0.024 0.126-0.062 0.178-0.114 0-0 0-0 0-0l4.854-4.854 4.854 4.854c0 0 0 0 0 0 0.052 0.052 0.113 0.090 0.178 0.114 0.178 0.066 0.386 0.029 0.529-0.114l2.293-2.293c0.143-0.143 0.181-0.351 0.114-0.529-0.024-0.065-0.062-0.126-0.114-0.178z"></path>
</symbol>
<symbol id="icon-checkmark" viewBox="0 0 16 16">
<path d="M13.5 2l-7.5 7.5-3.5-3.5-2.5 2.5 6 6 10-10z"></path>
</symbol>
<symbol id="icon-enter" viewBox="0 0 16 16">
<path d="M6 8h-5v-2h5v-2l3 3-3 3zM16 0v13l-6 3v-3h-6v-4h1v3h5v-9l4-2h-9v4h-1v-5z"></path>
</symbol>
<symbol id="icon-play3" viewBox="0 0 16 16">
<path d="M3 2l10 6-10 6z"></path>
</symbol>
<symbol id="icon-pause2" viewBox="0 0 16 16">
<path d="M2 2h5v12h-5zM9 2h5v12h-5z"></path>
</symbol>
<symbol id="icon-stop2" viewBox="0 0 16 16">
<path d="M2 2h12v12h-12z"></path>
</symbol>
<symbol id="icon-backward2" viewBox="0 0 16 16">
<path d="M9 2.5v5l5-5v11l-5-5v5l-5.5-5.5z"></path>
</symbol>
<symbol id="icon-forward3" viewBox="0 0 16 16">
<path d="M8 13.5v-5l-5 5v-11l5 5v-5l5.5 5.5z"></path>
</symbol>
<symbol id="icon-first" viewBox="0 0 16 16">
<path d="M2 14v-12h2v5.5l5-5v5l5-5v11l-5-5v5l-5-5v5.5z"></path>
</symbol>
<symbol id="icon-last" viewBox="0 0 16 16">
<path d="M14 2v12h-2v-5.5l-5 5v-5l-5 5v-11l5 5v-5l5 5v-5.5z"></path>
</symbol>
<symbol id="icon-previous2" viewBox="0 0 16 16">
<path d="M4 14v-12h2v5.5l5-5v11l-5-5v5.5z"></path>
</symbol>
<symbol id="icon-next2" viewBox="0 0 16 16">
<path d="M12 2v12h-2v-5.5l-5 5v-11l5 5v-5.5z"></path>
</symbol>
<symbol id="icon-eject" viewBox="0 0 16 16">
<path d="M0 12h16v2h-16zM8 2l8 8h-16z"></path>
</symbol>
<symbol id="icon-volume-high" viewBox="0 0 17 16">
<path d="M13.907 14.407c-0.192 0-0.384-0.073-0.53-0.22-0.293-0.293-0.293-0.768 0-1.061 1.369-1.369 2.123-3.19 2.123-5.127s-0.754-3.757-2.123-5.127c-0.293-0.293-0.293-0.768 0-1.061s0.768-0.293 1.061 0c1.653 1.653 2.563 3.85 2.563 6.187s-0.91 4.534-2.563 6.187c-0.146 0.146-0.338 0.22-0.53 0.22zM11.243 12.993c-0.192 0-0.384-0.073-0.53-0.22-0.293-0.293-0.293-0.768 0-1.061 2.047-2.047 2.047-5.378 0-7.425-0.293-0.293-0.293-0.768 0-1.061s0.768-0.293 1.061 0c1.275 1.275 1.977 2.97 1.977 4.773s-0.702 3.498-1.977 4.773c-0.146 0.146-0.338 0.22-0.53 0.22v0zM8.578 11.578c-0.192 0-0.384-0.073-0.53-0.22-0.293-0.293-0.293-0.768 0-1.061 1.267-1.267 1.267-3.329 0-4.596-0.293-0.293-0.293-0.768 0-1.061s0.768-0.293 1.061 0c1.852 1.852 1.852 4.865 0 6.718-0.146 0.146-0.338 0.22-0.53 0.22z"></path>
<path d="M6.5 15c-0.13 0-0.258-0.051-0.354-0.146l-3.854-3.854h-1.793c-0.276 0-0.5-0.224-0.5-0.5v-5c0-0.276 0.224-0.5 0.5-0.5h1.793l3.854-3.854c0.143-0.143 0.358-0.186 0.545-0.108s0.309 0.26 0.309 0.462v13c0 0.202-0.122 0.385-0.309 0.462-0.062 0.026-0.127 0.038-0.191 0.038z"></path>
</symbol>
<symbol id="icon-volume-medium" viewBox="0 0 16 16">
<path d="M11.243 12.993c-0.192 0-0.384-0.073-0.53-0.22-0.293-0.293-0.293-0.768 0-1.061 2.047-2.047 2.047-5.378 0-7.425-0.293-0.293-0.293-0.768 0-1.061s0.768-0.293 1.061 0c1.275 1.275 1.977 2.97 1.977 4.773s-0.702 3.498-1.977 4.773c-0.146 0.146-0.338 0.22-0.53 0.22v0zM8.578 11.578c-0.192 0-0.384-0.073-0.53-0.22-0.293-0.293-0.293-0.768 0-1.061 1.267-1.267 1.267-3.329 0-4.596-0.293-0.293-0.293-0.768 0-1.061s0.768-0.293 1.061 0c1.852 1.852 1.852 4.865 0 6.718-0.146 0.146-0.338 0.22-0.53 0.22z"></path>
<path d="M6.5 15c-0.13 0-0.258-0.051-0.354-0.146l-3.854-3.854h-1.793c-0.276 0-0.5-0.224-0.5-0.5v-5c0-0.276 0.224-0.5 0.5-0.5h1.793l3.854-3.854c0.143-0.143 0.358-0.186 0.545-0.108s0.309 0.26 0.309 0.462v13c0 0.202-0.122 0.385-0.309 0.462-0.062 0.026-0.127 0.038-0.191 0.038z"></path>
</symbol>
<symbol id="icon-volume-low" viewBox="0 0 16 16">
<path d="M8.578 11.578c-0.192 0-0.384-0.073-0.53-0.22-0.293-0.293-0.293-0.768 0-1.061 1.267-1.267 1.267-3.329 0-4.596-0.293-0.293-0.293-0.768 0-1.061s0.768-0.293 1.061 0c1.852 1.852 1.852 4.865 0 6.718-0.146 0.146-0.338 0.22-0.53 0.22z"></path>
<path d="M6.5 15c-0.13 0-0.258-0.051-0.354-0.146l-3.854-3.854h-1.793c-0.276 0-0.5-0.224-0.5-0.5v-5c0-0.276 0.224-0.5 0.5-0.5h1.793l3.854-3.854c0.143-0.143 0.358-0.186 0.545-0.108s0.309 0.26 0.309 0.462v13c0 0.202-0.122 0.385-0.309 0.462-0.062 0.026-0.127 0.038-0.191 0.038z"></path>
</symbol>
<symbol id="icon-volume-mute" viewBox="0 0 16 16">
<path d="M6.5 15c-0.13 0-0.258-0.051-0.354-0.146l-3.854-3.854h-1.793c-0.276 0-0.5-0.224-0.5-0.5v-5c0-0.276 0.224-0.5 0.5-0.5h1.793l3.854-3.854c0.143-0.143 0.358-0.186 0.545-0.108s0.309 0.26 0.309 0.462v13c0 0.202-0.122 0.385-0.309 0.462-0.062 0.026-0.127 0.038-0.191 0.038z"></path>
</symbol>
<symbol id="icon-volume-mute2" viewBox="0 0 16 16">
<path d="M15 9.674v1.326h-1.326l-1.674-1.674-1.674 1.674h-1.326v-1.326l1.674-1.674-1.674-1.674v-1.326h1.326l1.674 1.674 1.674-1.674h1.326v1.326l-1.674 1.674 1.674 1.674z"></path>
<path d="M6.5 15c-0.13 0-0.258-0.051-0.354-0.146l-3.854-3.854h-1.793c-0.276 0-0.5-0.224-0.5-0.5v-5c0-0.276 0.224-0.5 0.5-0.5h1.793l3.854-3.854c0.143-0.143 0.358-0.186 0.545-0.108s0.309 0.26 0.309 0.462v13c0 0.202-0.122 0.385-0.309 0.462-0.062 0.026-0.127 0.038-0.191 0.038z"></path>
</symbol>
<symbol id="icon-volume-increase" viewBox="0 0 16 16">
<path d="M16 9h-3v3h-2v-3h-3v-2h3v-3h2v3h3v2z"></path>
<path d="M6.5 15c-0.13 0-0.258-0.051-0.354-0.146l-3.854-3.854h-1.793c-0.276 0-0.5-0.224-0.5-0.5v-5c0-0.276 0.224-0.5 0.5-0.5h1.793l3.854-3.854c0.143-0.143 0.358-0.186 0.545-0.108s0.309 0.26 0.309 0.462v13c0 0.202-0.122 0.385-0.309 0.462-0.062 0.026-0.127 0.038-0.191 0.038z"></path>
</symbol>
<symbol id="icon-volume-decrease" viewBox="0 0 16 16">
<path d="M8 7h8v2h-8v-2z"></path>
<path d="M6.5 15c-0.13 0-0.258-0.051-0.354-0.146l-3.854-3.854h-1.793c-0.276 0-0.5-0.224-0.5-0.5v-5c0-0.276 0.224-0.5 0.5-0.5h1.793l3.854-3.854c0.143-0.143 0.358-0.186 0.545-0.108s0.309 0.26 0.309 0.462v13c0 0.202-0.122 0.385-0.309 0.462-0.062 0.026-0.127 0.038-0.191 0.038z"></path>
</symbol>
<symbol id="icon-infinite" viewBox="0 0 16 16">
<path d="M12.25 11.75c-1.002 0-1.943-0.39-2.652-1.098l-1.598-1.598-1.598 1.598c-0.708 0.708-1.65 1.098-2.652 1.098s-1.944-0.39-2.652-1.098c-0.708-0.708-1.098-1.65-1.098-2.652s0.39-1.943 1.098-2.652c0.708-0.708 1.65-1.098 2.652-1.098s1.943 0.39 2.652 1.098l1.598 1.598 1.598-1.598c0.708-0.708 1.65-1.098 2.652-1.098s1.944 0.39 2.652 1.098c0.708 0.708 1.098 1.65 1.098 2.652s-0.39 1.943-1.098 2.652c-0.708 0.708-1.65 1.098-2.652 1.098zM10.652 9.598c0.427 0.427 0.994 0.662 1.598 0.662s1.171-0.235 1.598-0.662c0.427-0.427 0.662-0.994 0.662-1.598s-0.235-1.171-0.662-1.598c-0.427-0.427-0.994-0.662-1.598-0.662s-1.171 0.235-1.598 0.662l-1.598 1.598 1.598 1.598zM3.75 5.74c-0.604 0-1.171 0.235-1.598 0.662s-0.662 0.994-0.662 1.598c0 0.604 0.235 1.171 0.662 1.598s0.994 0.662 1.598 0.662c0.604 0 1.171-0.235 1.598-0.662l1.598-1.598-1.598-1.598c-0.427-0.427-0.994-0.662-1.598-0.662v0z"></path>
</symbol>
<symbol id="icon-tab" viewBox="0 0 16 16">
<path d="M15 0h1v8h-1v-8z"></path>
<path d="M0 8h1v8h-1v-8z"></path>
<path d="M5 11h11v2h-11v2.5l-3.5-3.5 3.5-3.5v2.5z"></path>
<path d="M11 5h-11v-2h11v-2.5l3.5 3.5-3.5 3.5z"></path>
</symbol>
<symbol id="icon-checkbox-checked" viewBox="0 0 16 16">
<path d="M14 0h-12c-1.1 0-2 0.9-2 2v12c0 1.1 0.9 2 2 2h12c1.1 0 2-0.9 2-2v-12c0-1.1-0.9-2-2-2zM7 12.414l-3.707-3.707 1.414-1.414 2.293 2.293 4.793-4.793 1.414 1.414-6.207 6.207z"></path>
</symbol>
<symbol id="icon-checkbox-unchecked" viewBox="0 0 16 16">
<path d="M14 0h-12c-1.1 0-2 0.9-2 2v12c0 1.1 0.9 2 2 2h12c1.1 0 2-0.9 2-2v-12c0-1.1-0.9-2-2-2zM14 14h-12v-12h12v12z"></path>
</symbol>
<symbol id="icon-radio-checked" viewBox="0 0 16 16">
<path d="M8 0c-4.418 0-8 3.582-8 8s3.582 8 8 8 8-3.582 8-8-3.582-8-8-8zM8 14c-3.314 0-6-2.686-6-6s2.686-6 6-6c3.314 0 6 2.686 6 6s-2.686 6-6 6zM5 8c0-1.657 1.343-3 3-3s3 1.343 3 3c0 1.657-1.343 3-3 3s-3-1.343-3-3z"></path>
</symbol>
<symbol id="icon-radio-checked2" viewBox="0 0 16 16">
<path d="M8 0c-4.418 0-8 3.582-8 8s3.582 8 8 8 8-3.582 8-8-3.582-8-8-8zM8 10c-1.105 0-2-0.895-2-2s0.895-2 2-2c1.105 0 2 0.895 2 2s-0.895 2-2 2z"></path>
</symbol>
<symbol id="icon-radio-unchecked" viewBox="0 0 16 16">
<path d="M8 0c-4.418 0-8 3.582-8 8s3.582 8 8 8 8-3.582 8-8-3.582-8-8-8zM8 14c-3.314 0-6-2.686-6-6s2.686-6 6-6c3.314 0 6 2.686 6 6s-2.686 6-6 6z"></path>
</symbol>
<symbol id="icon-scissors" viewBox="0 0 16 16">
<path d="M14.279 10.62c-1.042-1.628-2.829-2.345-3.992-1.601-0.1 0.064-0.193 0.138-0.277 0.218l-1.241-1.942 2.867-4.5c0.235-0.433 0.321-0.949 0.207-1.468-0.109-0.496-0.383-0.913-0.752-1.207l-0.192-0.122-3.398 5.314-3.398-5.314-0.192 0.122c-0.369 0.294-0.643 0.711-0.752 1.207-0.114 0.519-0.027 1.035 0.207 1.468l2.867 4.5-1.241 1.942c-0.085-0.081-0.177-0.154-0.277-0.218-1.163-0.744-2.95-0.028-3.992 1.601s-0.944 3.551 0.219 4.296c1.163 0.744 2.95 0.028 3.992-1.601l2.567-4.029 2.567 4.029c1.042 1.628 2.829 2.345 3.992 1.601s1.261-2.667 0.219-4.296zM3.67 12.507c-0.469 0.733-1.071 1.089-1.478 1.179-0 0-0 0-0 0-0.133 0.029-0.317 0.047-0.443-0.033-0.139-0.089-0.231-0.324-0.247-0.629-0.025-0.494 0.151-1.076 0.483-1.594 0.469-0.733 1.071-1.089 1.478-1.179 0.133-0.029 0.317-0.047 0.443 0.033 0.139 0.089 0.231 0.324 0.247 0.629 0.025 0.495-0.151 1.076-0.483 1.594zM7.5 8c-0.276 0-0.5-0.224-0.5-0.5s0.224-0.5 0.5-0.5 0.5 0.224 0.5 0.5-0.224 0.5-0.5 0.5zM13.498 13.023c-0.016 0.305-0.108 0.54-0.247 0.629-0.125 0.080-0.31 0.062-0.443 0.033 0 0 0 0-0 0-0.407-0.089-1.009-0.446-1.478-1.179-0.332-0.519-0.508-1.1-0.483-1.594 0.016-0.305 0.108-0.54 0.247-0.629 0.125-0.080 0.31-0.062 0.443-0.033 0.407 0.089 1.009 0.446 1.478 1.179 0.332 0.519 0.508 1.1 0.483 1.594z"></path>
</symbol>
<symbol id="icon-table" viewBox="0 0 16 16">
<path d="M0 3v11h16v-11h-16zM6 10v-2h4v2h-4zM10 11v2h-4v-2h4zM10 5v2h-4v-2h4zM5 5v2h-4v-2h4zM1 8h4v2h-4v-2zM11 8h4v2h-4v-2zM11 7v-2h4v2h-4zM1 11h4v2h-4v-2zM11 13v-2h4v2h-4z"></path>
</symbol>
<symbol id="icon-embed" viewBox="0 0 16 16">
<path d="M9 11.5l1.5 1.5 5-5-5-5-1.5 1.5 3.5 3.5z"></path>
<path d="M7 4.5l-1.5-1.5-5 5 5 5 1.5-1.5-3.5-3.5z"></path>
</symbol>
<symbol id="icon-embed2" viewBox="0 0 20 16">
<path d="M13 11.5l1.5 1.5 5-5-5-5-1.5 1.5 3.5 3.5z"></path>
<path d="M7 4.5l-1.5-1.5-5 5 5 5 1.5-1.5-3.5-3.5z"></path>
<path d="M10.958 2.352l1.085 0.296-3 11-1.085-0.296 3-11z"></path>
</symbol>
<symbol id="icon-share2" viewBox="0 0 16 16">
<path d="M13.5 11c-0.706 0-1.342 0.293-1.797 0.763l-6.734-3.367c0.021-0.129 0.032-0.261 0.032-0.396s-0.011-0.267-0.032-0.396l6.734-3.367c0.455 0.47 1.091 0.763 1.797 0.763 1.381 0 2.5-1.119 2.5-2.5s-1.119-2.5-2.5-2.5-2.5 1.119-2.5 2.5c0 0.135 0.011 0.267 0.031 0.396l-6.734 3.367c-0.455-0.47-1.091-0.763-1.797-0.763-1.381 0-2.5 1.119-2.5 2.5s1.119 2.5 2.5 2.5c0.706 0 1.343-0.293 1.797-0.763l6.734 3.367c-0.021 0.129-0.031 0.261-0.031 0.396 0 1.381 1.119 2.5 2.5 2.5s2.5-1.119 2.5-2.5c0-1.381-1.119-2.5-2.5-2.5z"></path>
</symbol>
<symbol id="icon-google" viewBox="0 0 16 16">
<path d="M8.159 6.856v2.744h4.537c-0.184 1.178-1.372 3.45-4.537 3.45-2.731 0-4.959-2.262-4.959-5.050s2.228-5.050 4.959-5.050c1.553 0 2.594 0.663 3.188 1.234l2.172-2.091c-1.394-1.306-3.2-2.094-5.359-2.094-4.422 0-8 3.578-8 8s3.578 8 8 8c4.616 0 7.681-3.247 7.681-7.816 0-0.525-0.056-0.925-0.125-1.325l-7.556-0.003z"></path>
</symbol>
<symbol id="icon-google2" viewBox="0 0 16 16">
<path d="M14.5 0h-13c-0.825 0-1.5 0.675-1.5 1.5v13c0 0.825 0.675 1.5 1.5 1.5h13c0.825 0 1.5-0.675 1.5-1.5v-13c0-0.825-0.675-1.5-1.5-1.5zM8.119 14c-3.316 0-6-2.684-6-6s2.684-6 6-6c1.619 0 2.975 0.591 4.019 1.569l-1.628 1.569c-0.447-0.428-1.225-0.925-2.391-0.925-2.050 0-3.719 1.697-3.719 3.787s1.672 3.787 3.719 3.787c2.375 0 3.266-1.706 3.403-2.588h-3.403v-2.056h5.666c0.050 0.3 0.094 0.6 0.094 0.994 0.003 3.428-2.294 5.863-5.759 5.863z"></path>
</symbol>
<symbol id="icon-facebook" viewBox="0 0 16 16">
<path d="M9.5 3h2.5v-3h-2.5c-1.93 0-3.5 1.57-3.5 3.5v1.5h-2v3h2v8h3v-8h2.5l0.5-3h-3v-1.5c0-0.271 0.229-0.5 0.5-0.5z"></path>
</symbol>
<symbol id="icon-facebook2" viewBox="0 0 16 16">
<path d="M14.5 0h-13c-0.825 0-1.5 0.675-1.5 1.5v13c0 0.825 0.675 1.5 1.5 1.5h6.5v-7h-2v-2h2v-1c0-1.653 1.347-3 3-3h2v2h-2c-0.55 0-1 0.45-1 1v1h3l-0.5 2h-2.5v7h4.5c0.825 0 1.5-0.675 1.5-1.5v-13c0-0.825-0.675-1.5-1.5-1.5z"></path>
</symbol>
<symbol id="icon-instagram" viewBox="0 0 16 16">
<path d="M8 1.441c2.137 0 2.391 0.009 3.231 0.047 0.781 0.034 1.203 0.166 1.484 0.275 0.372 0.144 0.641 0.319 0.919 0.597 0.281 0.281 0.453 0.547 0.6 0.919 0.109 0.281 0.241 0.706 0.275 1.484 0.037 0.844 0.047 1.097 0.047 3.231s-0.009 2.391-0.047 3.231c-0.034 0.781-0.166 1.203-0.275 1.484-0.144 0.372-0.319 0.641-0.597 0.919-0.281 0.281-0.547 0.453-0.919 0.6-0.281 0.109-0.706 0.241-1.484 0.275-0.844 0.037-1.097 0.047-3.231 0.047s-2.391-0.009-3.231-0.047c-0.781-0.034-1.203-0.166-1.484-0.275-0.372-0.144-0.641-0.319-0.919-0.597-0.281-0.281-0.453-0.547-0.6-0.919-0.109-0.281-0.241-0.706-0.275-1.484-0.038-0.844-0.047-1.097-0.047-3.231s0.009-2.391 0.047-3.231c0.034-0.781 0.166-1.203 0.275-1.484 0.144-0.372 0.319-0.641 0.597-0.919 0.281-0.281 0.547-0.453 0.919-0.6 0.281-0.109 0.706-0.241 1.484-0.275 0.841-0.038 1.094-0.047 3.231-0.047zM8 0c-2.172 0-2.444 0.009-3.297 0.047-0.85 0.038-1.434 0.175-1.941 0.372-0.528 0.206-0.975 0.478-1.419 0.925-0.447 0.444-0.719 0.891-0.925 1.416-0.197 0.509-0.334 1.091-0.372 1.941-0.037 0.856-0.047 1.128-0.047 3.3s0.009 2.444 0.047 3.297c0.038 0.85 0.175 1.434 0.372 1.941 0.206 0.528 0.478 0.975 0.925 1.419 0.444 0.444 0.891 0.719 1.416 0.922 0.509 0.197 1.091 0.334 1.941 0.372 0.853 0.037 1.125 0.047 3.297 0.047s2.444-0.009 3.297-0.047c0.85-0.037 1.434-0.175 1.941-0.372 0.525-0.203 0.972-0.478 1.416-0.922s0.719-0.891 0.922-1.416c0.197-0.509 0.334-1.091 0.372-1.941 0.037-0.853 0.047-1.125 0.047-3.297s-0.009-2.444-0.047-3.297c-0.037-0.85-0.175-1.434-0.372-1.941-0.197-0.531-0.469-0.978-0.916-1.422-0.444-0.444-0.891-0.719-1.416-0.922-0.509-0.197-1.091-0.334-1.941-0.372-0.856-0.041-1.128-0.050-3.3-0.050v0z"></path>
<path d="M8 3.891c-2.269 0-4.109 1.841-4.109 4.109s1.841 4.109 4.109 4.109 4.109-1.841 4.109-4.109c0-2.269-1.841-4.109-4.109-4.109zM8 10.666c-1.472 0-2.666-1.194-2.666-2.666s1.194-2.666 2.666-2.666c1.472 0 2.666 1.194 2.666 2.666s-1.194 2.666-2.666 2.666z"></path>
<path d="M13.231 3.728c0 0.53-0.43 0.959-0.959 0.959s-0.959-0.43-0.959-0.959c0-0.53 0.43-0.959 0.959-0.959s0.959 0.43 0.959 0.959z"></path>
</symbol>
<symbol id="icon-whatsapp" viewBox="0 0 16 16">
<path d="M13.641 2.325c-1.497-1.5-3.488-2.325-5.609-2.325-4.369 0-7.925 3.556-7.925 7.928 0 1.397 0.366 2.763 1.059 3.963l-1.125 4.109 4.203-1.103c1.159 0.631 2.463 0.966 3.787 0.966h0.003c0 0 0 0 0 0 4.369 0 7.928-3.556 7.928-7.928 0-2.119-0.825-4.109-2.322-5.609zM8.034 14.525v0c-1.184 0-2.344-0.319-3.356-0.919l-0.241-0.144-2.494 0.653 0.666-2.431-0.156-0.25c-0.663-1.047-1.009-2.259-1.009-3.506 0-3.634 2.956-6.591 6.594-6.591 1.759 0 3.416 0.688 4.659 1.931 1.244 1.247 1.928 2.9 1.928 4.662-0.003 3.637-2.959 6.594-6.591 6.594zM11.647 9.588c-0.197-0.1-1.172-0.578-1.353-0.644s-0.313-0.1-0.447 0.1c-0.131 0.197-0.512 0.644-0.628 0.778-0.116 0.131-0.231 0.15-0.428 0.050s-0.838-0.309-1.594-0.984c-0.588-0.525-0.987-1.175-1.103-1.372s-0.013-0.306 0.088-0.403c0.091-0.088 0.197-0.231 0.297-0.347s0.131-0.197 0.197-0.331c0.066-0.131 0.034-0.247-0.016-0.347s-0.447-1.075-0.609-1.472c-0.159-0.388-0.325-0.334-0.447-0.341-0.116-0.006-0.247-0.006-0.378-0.006s-0.347 0.050-0.528 0.247c-0.181 0.197-0.694 0.678-0.694 1.653s0.709 1.916 0.809 2.050c0.1 0.131 1.397 2.134 3.384 2.991 0.472 0.203 0.841 0.325 1.128 0.419 0.475 0.15 0.906 0.128 1.247 0.078 0.381-0.056 1.172-0.478 1.338-0.941s0.166-0.859 0.116-0.941c-0.047-0.088-0.178-0.137-0.378-0.238z"></path>
</symbol>
<symbol id="icon-twitter" viewBox="0 0 16 16">
<path d="M16 3.538c-0.588 0.263-1.222 0.438-1.884 0.516 0.678-0.406 1.197-1.050 1.444-1.816-0.634 0.375-1.338 0.65-2.084 0.797-0.6-0.638-1.453-1.034-2.397-1.034-1.813 0-3.281 1.469-3.281 3.281 0 0.256 0.028 0.506 0.084 0.747-2.728-0.138-5.147-1.444-6.766-3.431-0.281 0.484-0.444 1.050-0.444 1.65 0 1.138 0.578 2.144 1.459 2.731-0.538-0.016-1.044-0.166-1.488-0.409 0 0.013 0 0.028 0 0.041 0 1.591 1.131 2.919 2.634 3.219-0.275 0.075-0.566 0.116-0.866 0.116-0.212 0-0.416-0.022-0.619-0.059 0.419 1.303 1.631 2.253 3.066 2.281-1.125 0.881-2.538 1.406-4.078 1.406-0.266 0-0.525-0.016-0.784-0.047 1.456 0.934 3.181 1.475 5.034 1.475 6.037 0 9.341-5.003 9.341-9.341 0-0.144-0.003-0.284-0.009-0.425 0.641-0.459 1.197-1.038 1.637-1.697z"></path>
</symbol>
<symbol id="icon-rss" viewBox="0 0 16 16">
<path d="M2.13 11.733c-1.175 0-2.13 0.958-2.13 2.126 0 1.174 0.955 2.122 2.13 2.122 1.179 0 2.133-0.948 2.133-2.122-0-1.168-0.954-2.126-2.133-2.126zM0.002 5.436v3.067c1.997 0 3.874 0.781 5.288 2.196 1.412 1.411 2.192 3.297 2.192 5.302h3.080c-0-5.825-4.739-10.564-10.56-10.564zM0.006 0v3.068c7.122 0 12.918 5.802 12.918 12.932h3.076c0-8.82-7.176-16-15.994-16z"></path>
</symbol>
<symbol id="icon-youtube" viewBox="0 0 16 16">
<path d="M15.841 4.8c0 0-0.156-1.103-0.637-1.587-0.609-0.637-1.291-0.641-1.603-0.678-2.237-0.163-5.597-0.163-5.597-0.163h-0.006c0 0-3.359 0-5.597 0.163-0.313 0.038-0.994 0.041-1.603 0.678-0.481 0.484-0.634 1.587-0.634 1.587s-0.159 1.294-0.159 2.591v1.213c0 1.294 0.159 2.591 0.159 2.591s0.156 1.103 0.634 1.588c0.609 0.637 1.409 0.616 1.766 0.684 1.281 0.122 5.441 0.159 5.441 0.159s3.363-0.006 5.6-0.166c0.313-0.037 0.994-0.041 1.603-0.678 0.481-0.484 0.637-1.588 0.637-1.588s0.159-1.294 0.159-2.591v-1.213c-0.003-1.294-0.162-2.591-0.162-2.591zM6.347 10.075v-4.497l4.322 2.256-4.322 2.241z"></path>
</symbol>
<symbol id="icon-twitch" viewBox="0 0 16 16">
<path d="M1.5 0l-1.5 2.5v11.5h4v2h2l2-2h2.5l4.5-4.5v-9.5h-13.5zM13 8.5l-2.5 2.5h-2.5l-2 2v-2h-3v-9h10v6.5z"></path>
<path d="M9.5 4h1.5v4h-1.5v-4z"></path>
<path d="M6.5 4h1.5v4h-1.5v-4z"></path>
</symbol>
<symbol id="icon-dribbble" viewBox="0 0 16 16">
<path d="M8 16c-4.412 0-8-3.588-8-8s3.587-8 8-8c4.412 0 8 3.587 8 8s-3.588 8-8 8v0zM14.747 9.094c-0.234-0.075-2.116-0.634-4.256-0.291 0.894 2.456 1.256 4.456 1.328 4.872 1.531-1.037 2.625-2.678 2.928-4.581v0zM10.669 14.3c-0.103-0.6-0.497-2.688-1.456-5.181-0.016 0.006-0.031 0.009-0.044 0.016-3.856 1.344-5.241 4.016-5.362 4.266 1.159 0.903 2.616 1.444 4.194 1.444 0.947 0 1.85-0.194 2.669-0.544v0zM2.922 12.578c0.156-0.266 2.031-3.369 5.553-4.509 0.088-0.028 0.178-0.056 0.269-0.081-0.172-0.388-0.359-0.778-0.553-1.159-3.409 1.022-6.722 0.978-7.022 0.975-0.003 0.069-0.003 0.138-0.003 0.209 0 1.753 0.666 3.356 1.756 4.566v0zM1.313 6.609c0.306 0.003 3.122 0.016 6.319-0.831-1.131-2.013-2.353-3.706-2.534-3.953-1.913 0.903-3.344 2.666-3.784 4.784v0zM6.4 1.366c0.188 0.253 1.431 1.944 2.55 4 2.431-0.909 3.459-2.294 3.581-2.469-1.206-1.072-2.794-1.722-4.531-1.722-0.55 0.003-1.088 0.069-1.6 0.191v0zM13.291 3.691c-0.144 0.194-1.291 1.663-3.816 2.694 0.159 0.325 0.313 0.656 0.453 0.991 0.050 0.119 0.1 0.234 0.147 0.353 2.275-0.284 4.534 0.172 4.759 0.219-0.016-1.612-0.594-3.094-1.544-4.256v0z"></path>
</symbol>
<symbol id="icon-steam" viewBox="0 0 16 16">
<path d="M11 4.5c0-0.828 0.672-1.5 1.5-1.5s1.5 0.672 1.5 1.5c0 0.828-0.672 1.5-1.5 1.5s-1.5-0.672-1.5-1.5zM14.975 2.025c-1.367-1.367-3.583-1.367-4.95 0-0.556 0.556-0.886 1.252-0.989 1.975v0l-3.198 4.847c-0.43 0.022-0.856 0.132-1.249 0.328l-2.467-1.928c-0.571-0.446-1.396-0.345-1.842 0.226s-0.345 1.396 0.226 1.842l2.436 1.905c-0.265 1.043 0.010 2.196 0.827 3.012 1.233 1.233 3.232 1.233 4.465 0 0.757-0.757 1.049-1.804 0.876-2.784l3.891-3.484c0.723-0.104 1.419-0.434 1.975-0.989 1.367-1.367 1.367-3.583 0-4.95zM6 14.105c-1.162 0-2.105-0.942-2.105-2.105 0-0.011 0.001-0.022 0.001-0.033l1.046 0.817c0.24 0.188 0.525 0.278 0.807 0.278 0.39 0 0.776-0.173 1.035-0.504 0.446-0.571 0.345-1.396-0.226-1.842l-0.992-0.776c0.14-0.029 0.285-0.045 0.434-0.045 1.162 0 2.105 0.942 2.105 2.105s-0.942 2.105-2.105 2.105zM12.5 7c-1.381 0-2.5-1.119-2.5-2.5s1.119-2.5 2.5-2.5 2.5 1.119 2.5 2.5-1.119 2.5-2.5 2.5z"></path>
</symbol>
<symbol id="icon-dropbox" viewBox="0 0 16 16">
<path d="M11.5 0.5l-3.5 3 4.5 3 3.5-3z"></path>
<path d="M8 3.5l-3.5-3-4.5 3 3.5 3z"></path>
<path d="M12.5 6.5l3.5 3-4.5 2.5-3.5-3z"></path>
<path d="M8 9l-4.5-2.5-3.5 3 4.5 2.5z"></path>
<path d="M11.377 13.212l-3.377-2.895-3.377 2.895-2.123-1.179v1.467l5.5 2.5 5.5-2.5v-1.467z"></path>
</symbol>
<symbol id="icon-github" viewBox="0 0 16 16">
<path d="M8 0.198c-4.418 0-8 3.582-8 8 0 3.535 2.292 6.533 5.471 7.591 0.4 0.074 0.547-0.174 0.547-0.385 0-0.191-0.008-0.821-0.011-1.489-2.226 0.484-2.695-0.944-2.695-0.944-0.364-0.925-0.888-1.171-0.888-1.171-0.726-0.497 0.055-0.486 0.055-0.486 0.803 0.056 1.226 0.824 1.226 0.824 0.714 1.223 1.872 0.869 2.328 0.665 0.072-0.517 0.279-0.87 0.508-1.070-1.777-0.202-3.645-0.888-3.645-3.954 0-0.873 0.313-1.587 0.824-2.147-0.083-0.202-0.357-1.015 0.077-2.117 0 0 0.672-0.215 2.201 0.82 0.638-0.177 1.322-0.266 2.002-0.269 0.68 0.003 1.365 0.092 2.004 0.269 1.527-1.035 2.198-0.82 2.198-0.82 0.435 1.102 0.162 1.916 0.079 2.117 0.513 0.56 0.823 1.274 0.823 2.147 0 3.073-1.872 3.749-3.653 3.947 0.287 0.248 0.543 0.735 0.543 1.481 0 1.070-0.009 1.932-0.009 2.195 0 0.213 0.144 0.462 0.55 0.384 3.177-1.059 5.466-4.057 5.466-7.59 0-4.418-3.582-8-8-8z"></path>
</symbol>
<symbol id="icon-wordpress" viewBox="0 0 16 16">
<path d="M2 8c0 2.313 1.38 4.312 3.382 5.259l-2.862-7.637c-0.333 0.727-0.52 1.531-0.52 2.378zM12.050 7.705c0-0.722-0.266-1.222-0.495-1.612-0.304-0.482-0.589-0.889-0.589-1.371 0-0.537 0.418-1.037 1.008-1.037 0.027 0 0.052 0.003 0.078 0.005-1.067-0.953-2.49-1.534-4.052-1.534-2.096 0-3.94 1.048-5.013 2.634 0.141 0.004 0.274 0.007 0.386 0.007 0.627 0 1.599-0.074 1.599-0.074 0.323-0.018 0.361 0.444 0.038 0.482 0 0-0.325 0.037-0.687 0.055l2.185 6.33 1.313-3.835-0.935-2.495c-0.323-0.019-0.629-0.055-0.629-0.055-0.323-0.019-0.285-0.5 0.038-0.482 0 0 0.991 0.074 1.58 0.074 0.627 0 1.599-0.074 1.599-0.074 0.323-0.018 0.362 0.444 0.038 0.482 0 0-0.326 0.037-0.687 0.055l2.168 6.282 0.599-1.947c0.259-0.809 0.457-1.389 0.457-1.889zM8.105 8.511l-1.8 5.095c0.538 0.154 1.106 0.238 1.695 0.238 0.699 0 1.369-0.117 1.992-0.331-0.016-0.025-0.031-0.052-0.043-0.081l-1.844-4.921zM13.265 5.196c0.026 0.186 0.040 0.386 0.040 0.601 0 0.593-0.114 1.259-0.456 2.093l-1.833 5.16c1.784-1.013 2.983-2.895 2.983-5.051 0-1.016-0.267-1.971-0.735-2.803zM8 0c-4.418 0-8 3.582-8 8s3.582 8 8 8 8-3.582 8-8-3.582-8-8-8zM8 15c-3.866 0-7-3.134-7-7s3.134-7 7-7 7 3.134 7 7-3.134 7-7 7z"></path>
</symbol>
<symbol id="icon-tux" viewBox="0 0 16 16">
<path d="M8.87 11.514c-1.28 0.596-2.471 0.589-3.271 0.532-0.954-0.069-1.721-0.33-2.058-0.558-0.208-0.141-0.49-0.086-0.631 0.122s-0.086 0.49 0.122 0.631c0.542 0.367 1.501 0.64 2.503 0.712 0.17 0.012 0.356 0.020 0.557 0.020 0.872 0 1.979-0.083 3.163-0.634 0.228-0.106 0.326-0.376 0.22-0.604s-0.376-0.326-0.604-0.22zM13.921 10.841c0.044-3.948 0.449-11.409-7.109-10.806-7.463 0.601-5.484 8.484-5.595 11.124-0.099 1.397-0.562 3.104-1.217 4.841h2.017c0.207-0.736 0.36-1.464 0.425-2.159 0.122 0.085 0.252 0.167 0.391 0.245 0.226 0.133 0.42 0.31 0.626 0.497 0.48 0.438 1.025 0.934 2.089 0.996 0.071 0.004 0.143 0.006 0.214 0.006 1.077 0 1.813-0.471 2.404-0.85 0.283-0.181 0.528-0.338 0.759-0.413 0.655-0.205 1.227-0.536 1.655-0.957 0.067-0.066 0.129-0.133 0.187-0.202 0.238 0.873 0.564 1.856 0.926 2.836h4.307c-1.034-1.597-2.101-3.162-2.079-5.159zM1.939 8.693c0-0 0-0-0-0.001-0.074-1.288 0.542-2.372 1.377-2.421s1.571 0.957 1.645 2.245c0 0 0 0 0 0.001 0.004 0.069 0.006 0.138 0.006 0.206-0.264 0.066-0.503 0.163-0.717 0.275-0.001-0.010-0.001-0.019-0.002-0.029 0-0 0-0 0-0-0.071-0.731-0.462-1.284-0.873-1.234s-0.686 0.684-0.614 1.415c0 0 0 0 0 0 0.031 0.319 0.123 0.604 0.251 0.819-0.032 0.025-0.122 0.091-0.225 0.166-0.078 0.057-0.172 0.126-0.286 0.21-0.311-0.408-0.524-0.993-0.562-1.655zM10.395 11.878c-0.030 0.681-0.92 1.322-1.743 1.579l-0.005 0.002c-0.342 0.111-0.647 0.306-0.97 0.513-0.543 0.347-1.104 0.706-1.914 0.706-0.053 0-0.108-0.002-0.161-0.005-0.742-0.043-1.090-0.36-1.529-0.761-0.232-0.211-0.472-0.43-0.781-0.611l-0.007-0.004c-0.667-0.377-1.081-0.845-1.108-1.253-0.013-0.203 0.077-0.378 0.268-0.522 0.416-0.312 0.695-0.516 0.879-0.651 0.205-0.15 0.267-0.195 0.313-0.239 0.033-0.031 0.068-0.065 0.106-0.103 0.382-0.371 1.021-0.993 2.002-0.993 0.6 0 1.264 0.231 1.971 0.686 0.333 0.217 0.623 0.317 0.99 0.444 0.252 0.087 0.539 0.186 0.922 0.35l0.006 0.003c0.357 0.147 0.78 0.415 0.76 0.858zM10.198 10.278c-0.069-0.035-0.14-0.068-0.215-0.098-0.345-0.148-0.622-0.248-0.852-0.328 0.127-0.248 0.206-0.558 0.213-0.894 0-0 0-0 0-0 0.018-0.818-0.395-1.483-0.922-1.484s-0.968 0.661-0.986 1.479c0 0 0 0 0 0-0.001 0.027-0.001 0.053-0 0.080-0.324-0.149-0.643-0.258-0.956-0.324-0.001-0.031-0.003-0.061-0.004-0.092 0-0 0-0.001 0-0.001-0.030-1.491 0.884-2.725 2.043-2.756s2.122 1.152 2.153 2.642c0 0 0 0.001 0 0.001 0.014 0.674-0.167 1.295-0.475 1.776z"></path>
</symbol>
<symbol id="icon-appleinc" viewBox="0 0 16 16">
<path d="M12.367 8.501c-0.020-2.026 1.652-2.998 1.727-3.046-0.94-1.375-2.404-1.564-2.926-1.585-1.246-0.126-2.431 0.734-3.064 0.734-0.631 0-1.607-0.715-2.64-0.696-1.358 0.020-2.61 0.79-3.31 2.006-1.411 2.448-0.361 6.076 1.014 8.061 0.672 0.972 1.473 2.064 2.525 2.025 1.013-0.040 1.396-0.656 2.621-0.656s1.569 0.656 2.641 0.635c1.090-0.020 1.781-0.991 2.448-1.966 0.772-1.128 1.089-2.219 1.108-2.275-0.024-0.011-2.126-0.816-2.147-3.236zM10.353 2.555c0.558-0.677 0.935-1.617 0.832-2.555-0.804 0.033-1.779 0.536-2.356 1.212-0.518 0.6-0.971 1.557-0.85 2.476 0.898 0.070 1.815-0.456 2.373-1.132z"></path>
</symbol>
<symbol id="icon-finder" viewBox="0 0 16 16">
<path d="M8.894 12.16c-0-0.001-0-0.001-0-0.002 0 0.001 0 0.001 0 0.002z"></path>
<path d="M8.916 12.727c-0-0.004-0-0.007-0.001-0.011 0 0.004 0 0.007 0.001 0.011z"></path>
<path d="M8.903 12.442c-0-0.003-0-0.006-0-0.008 0 0.003 0 0.006 0 0.008z"></path>
<path d="M15 0h-14c-0.55 0-1 0.45-1 1v14c0 0.55 0.45 1 1 1h7.716c0.001 0 0.001 0 0.002 0s0.001-0 0.002-0h6.28c0.55 0 1-0.45 1-1v-14c0-0.55-0.45-1-1-1zM3 3.5c0-0.276 0.224-0.5 0.5-0.5s0.5 0.224 0.5 0.5v1c0 0.276-0.224 0.5-0.5 0.5s-0.5-0.224-0.5-0.5v-1zM15 15h-5.86c-0.105-0.658-0.17-1.336-0.209-1.994 0 0.002 0 0.004 0 0.005-0.308 0.034-0.618 0.051-0.931 0.051-2.088 0-4.1-0.76-5.664-2.141-0.233-0.206-0.255-0.561-0.050-0.794s0.561-0.255 0.794-0.050c1.358 1.199 3.105 1.859 4.919 1.859 0.298 0 0.595-0.018 0.888-0.053-0.034-1.847 0.107-3.311 0.11-3.334 0.014-0.141-0.032-0.28-0.127-0.385s-0.229-0.164-0.371-0.164h-1.487c0.022-0.541 0.079-1.466 0.234-2.503 0.295-1.981 0.812-3.528 1.502-4.497h6.251v14z"></path>
<path d="M12.5 5c-0.276 0-0.5-0.224-0.5-0.5v-1c0-0.276 0.224-0.5 0.5-0.5s0.5 0.224 0.5 0.5v1c0 0.276-0.224 0.5-0.5 0.5z"></path>
<path d="M8.445 13.050c-0.057 0.003-0.114 0.005-0.171 0.007 0.057-0.002 0.114-0.004 0.171-0.007z"></path>
<path d="M8 13.063c0.073 0 0.146-0.001 0.22-0.003-0.073 0.002-0.146 0.003-0.22 0.003z"></path>
<path d="M8.423 11.925c0.012-0.001 0.024-0.001 0.037-0.002-0.012 0.001-0.024 0.001-0.037 0.002z"></path>
<path d="M8.204 11.934c0.017-0 0.034-0.001 0.050-0.002-0.017 0.001-0.034 0.001-0.050 0.002z"></path>
<path d="M13.713 10.128c-0.206-0.233-0.561-0.255-0.794-0.050-1.135 1.002-2.542 1.627-4.032 1.806 0.007 0.364 0.020 0.742 0.043 1.127 1.749-0.191 3.403-0.916 4.733-2.090 0.233-0.206 0.255-0.561 0.050-0.794z"></path>
<path d="M8.93 13.012c-0.072 0.008-0.144 0.015-0.216 0.021 0.072-0.006 0.144-0.013 0.216-0.021z"></path>
<path d="M8.68 13.035c-0.061 0.005-0.122 0.009-0.183 0.013 0.061-0.004 0.122-0.008 0.183-0.013z"></path>
</symbol>
<symbol id="icon-android" viewBox="0 0 16 16">
<path d="M14 6c-0.55 0-1 0.45-1 1v4c0 0.55 0.45 1 1 1s1-0.45 1-1v-4c0-0.55-0.45-1-1-1zM2 6c-0.55 0-1 0.45-1 1v4c0 0.55 0.45 1 1 1s1-0.45 1-1v-4c0-0.55-0.45-1-1-1zM3.5 11.5c0 0.828 0.672 1.5 1.5 1.5v0 2c0 0.55 0.45 1 1 1s1-0.45 1-1v-2h2v2c0 0.55 0.45 1 1 1s1-0.45 1-1v-2c0.828 0 1.5-0.672 1.5-1.5v-5.5h-9v5.5z"></path>
<path d="M12.472 5c-0.152-1.373-0.922-2.559-2.025-3.276l0.5-1.001c0.123-0.247 0.023-0.547-0.224-0.671s-0.547-0.023-0.671 0.224l-0.502 1.004-0.13-0.052c-0.446-0.148-0.924-0.229-1.42-0.229s-0.974 0.081-1.42 0.229l-0.13 0.052-0.502-1.004c-0.123-0.247-0.424-0.347-0.671-0.224s-0.347 0.424-0.224 0.671l0.5 1.001c-1.103 0.716-1.873 1.903-2.025 3.276v0.5h8.972v-0.5h-0.028zM6.5 4c-0.276 0-0.5-0.224-0.5-0.5s0.223-0.499 0.499-0.5c0 0 0.001 0 0.001 0s0.001-0 0.001-0c0.276 0.001 0.499 0.224 0.499 0.5s-0.224 0.5-0.5 0.5zM9.5 4c-0.276 0-0.5-0.224-0.5-0.5s0.223-0.499 0.499-0.5c0 0 0.001 0 0.001 0s0.001-0 0.002-0c0.276 0.001 0.499 0.224 0.499 0.5s-0.224 0.5-0.5 0.5z"></path>
</symbol>
<symbol id="icon-windows" viewBox="0 0 16 16">
<path d="M6.441 7.999c-0.745-0.383-1.47-0.577-2.154-0.577-0.093 0-0.187 0.003-0.28 0.011-0.873 0.072-1.671 0.303-2.184 0.482-0.136 0.050-0.276 0.103-0.419 0.161l-1.403 4.866c0.964-0.357 1.817-0.53 2.598-0.53 1.263 0 2.18 0.472 2.937 0.958 0.359-1.217 1.219-4.158 1.476-5.036-0.187-0.114-0.376-0.228-0.571-0.333zM8.255 9.235l-1.413 4.909c0.419 0.24 1.83 1.001 2.91 1.001 0.872 0 1.848-0.223 2.982-0.684l1.349-4.718c-0.916 0.296-1.795 0.446-2.617 0.446-1.499 0-2.549-0.486-3.211-0.952zM4.575 5.762c1.205 0.012 2.096 0.472 2.835 0.945l1.449-4.958c-0.305-0.175-1.106-0.611-1.685-0.759-0.381-0.089-0.782-0.135-1.206-0.135-0.809 0.015-1.694 0.218-2.701 0.622l-1.382 4.853c1.013-0.382 1.885-0.568 2.689-0.568 0.001 0 0.002 0 0.002 0zM16 3.096c-0.919 0.357-1.816 0.539-2.672 0.539-1.433 0-2.489-0.497-3.173-0.974l-1.437 4.972c0.965 0.62 2.005 0.936 3.096 0.936 0.89 0 1.812-0.214 2.742-0.636l-0.003-0.035 0.058-0.014 1.39-4.788z"></path>
</symbol>
<symbol id="icon-soundcloud" viewBox="0 0 16 16">
<path d="M13.937 8.034c-0.283 0-0.552 0.055-0.798 0.154-0.164-1.787-1.723-3.188-3.625-3.188-0.465 0-0.917 0.088-1.317 0.237-0.156 0.058-0.197 0.117-0.197 0.233v6.292c0 0.121 0.098 0.222 0.221 0.234 0.005 0.001 5.68 0.003 5.717 0.003 1.139 0 2.062-0.888 2.062-1.983s-0.924-1.983-2.063-1.983zM6.25 12h0.5l0.25-3.503-0.25-3.497h-0.5l-0.25 3.497zM4.75 12h-0.5l-0.25-2.543 0.25-2.457h0.5l0.25 2.5zM2.25 12h0.5l0.25-2-0.25-2h-0.5l-0.25 2zM0.25 11h0.5l0.25-1-0.25-1h-0.5l-0.25 1z"></path>
</symbol>
<symbol id="icon-reddit" viewBox="0 0 16 16">
<path d="M4 10c0-0.552 0.448-1 1-1s1 0.448 1 1c0 0.552-0.448 1-1 1s-1-0.448-1-1zM10 10c0-0.552 0.448-1 1-1s1 0.448 1 1c0 0.552-0.448 1-1 1s-1-0.448-1-1zM10.049 12.137c0.258-0.203 0.631-0.159 0.834 0.099s0.159 0.631-0.099 0.834c-0.717 0.565-1.81 0.93-2.783 0.93s-2.066-0.365-2.784-0.93c-0.258-0.203-0.302-0.576-0.099-0.834s0.576-0.302 0.834-0.099c0.413 0.325 1.23 0.675 2.049 0.675s1.636-0.35 2.049-0.675zM16 8c0-1.105-0.895-2-2-2-0.752 0-1.406 0.415-1.748 1.028-1.028-0.562-2.28-0.926-3.645-1.010l1.193-2.68 2.284 0.659c0.206 0.583 0.761 1.002 1.415 1.002 0.828 0 1.5-0.672 1.5-1.5s-0.672-1.5-1.5-1.5c-0.571 0-1.068 0.319-1.321 0.789l-2.545-0.735c-0.285-0.082-0.587 0.058-0.707 0.329l-1.621 3.641c-1.33 0.094-2.551 0.453-3.557 1.004-0.342-0.613-0.996-1.028-1.748-1.028-1.105 0-2 0.895-2 2 0 0.817 0.491 1.52 1.193 1.83-0.126 0.375-0.193 0.767-0.193 1.17 0 2.761 3.134 5 7 5s7-2.239 7-5c0-0.403-0.067-0.795-0.193-1.17 0.703-0.31 1.193-1.013 1.193-1.83zM13.5 2.938c0.311 0 0.563 0.252 0.563 0.563s-0.252 0.563-0.563 0.563-0.563-0.252-0.563-0.563 0.252-0.563 0.563-0.563zM1 8c0-0.551 0.449-1 1-1 0.399 0 0.743 0.234 0.904 0.573-0.523 0.396-0.956 0.854-1.276 1.355-0.368-0.148-0.628-0.508-0.628-0.928zM8 14.813c-3.21 0-5.813-1.707-5.813-3.813s2.602-3.813 5.813-3.813c3.21 0 5.813 1.707 5.813 3.813s-2.602 3.813-5.813 3.813zM14.372 8.928c-0.32-0.502-0.753-0.959-1.276-1.355 0.161-0.338 0.505-0.573 0.904-0.573 0.551 0 1 0.449 1 1 0 0.42-0.26 0.78-0.628 0.928z"></path>
</symbol>
<symbol id="icon-linkedin2" viewBox="0 0 16 16">
<path d="M6 6h2.767v1.418h0.040c0.385-0.691 1.327-1.418 2.732-1.418 2.921 0 3.461 1.818 3.461 4.183v4.817h-2.885v-4.27c0-1.018-0.021-2.329-1.5-2.329-1.502 0-1.732 1.109-1.732 2.255v4.344h-2.883v-9z"></path>
<path d="M1 6h3v9h-3v-9z"></path>
<path d="M4 3.5c0 0.828-0.672 1.5-1.5 1.5s-1.5-0.672-1.5-1.5c0-0.828 0.672-1.5 1.5-1.5s1.5 0.672 1.5 1.5z"></path>
</symbol>
<symbol id="icon-file-pdf" viewBox="0 0 16 16">
<path d="M13.156 9.211c-0.213-0.21-0.686-0.321-1.406-0.331-0.487-0.005-1.073 0.038-1.69 0.124-0.276-0.159-0.561-0.333-0.784-0.542-0.601-0.561-1.103-1.34-1.415-2.197 0.020-0.080 0.038-0.15 0.054-0.222 0 0 0.339-1.923 0.249-2.573-0.012-0.089-0.020-0.115-0.044-0.184l-0.029-0.076c-0.092-0.212-0.273-0.437-0.556-0.425l-0.171-0.005c-0.316 0-0.573 0.161-0.64 0.403-0.205 0.757 0.007 1.889 0.39 3.355l-0.098 0.239c-0.275 0.67-0.619 1.345-0.923 1.94l-0.040 0.077c-0.32 0.626-0.61 1.157-0.873 1.607l-0.271 0.144c-0.020 0.010-0.485 0.257-0.594 0.323-0.926 0.553-1.539 1.18-1.641 1.678-0.032 0.159-0.008 0.362 0.156 0.456l0.263 0.132c0.114 0.057 0.234 0.086 0.357 0.086 0.659 0 1.425-0.821 2.48-2.662 1.218-0.396 2.604-0.726 3.819-0.908 0.926 0.521 2.065 0.883 2.783 0.883 0.128 0 0.238-0.012 0.327-0.036 0.138-0.037 0.254-0.115 0.325-0.222 0.139-0.21 0.168-0.499 0.13-0.795-0.011-0.088-0.081-0.196-0.157-0.271zM3.307 12.72c0.12-0.329 0.596-0.979 1.3-1.556 0.044-0.036 0.153-0.138 0.253-0.233-0.736 1.174-1.229 1.642-1.553 1.788zM7.476 3.12c0.212 0 0.333 0.534 0.343 1.035s-0.107 0.853-0.252 1.113c-0.12-0.385-0.179-0.992-0.179-1.389 0 0-0.009-0.759 0.088-0.759v0zM6.232 9.961c0.148-0.264 0.301-0.543 0.458-0.839 0.383-0.724 0.624-1.29 0.804-1.755 0.358 0.651 0.804 1.205 1.328 1.649 0.065 0.055 0.135 0.111 0.207 0.166-1.066 0.211-1.987 0.467-2.798 0.779v0zM12.952 9.901c-0.065 0.041-0.251 0.064-0.37 0.064-0.386 0-0.864-0.176-1.533-0.464 0.257-0.019 0.493-0.029 0.705-0.029 0.387 0 0.502-0.002 0.88 0.095s0.383 0.293 0.318 0.333v0z"></path>
<path d="M14.341 3.579c-0.347-0.473-0.831-1.027-1.362-1.558s-1.085-1.015-1.558-1.362c-0.806-0.591-1.197-0.659-1.421-0.659h-7.75c-0.689 0-1.25 0.561-1.25 1.25v13.5c0 0.689 0.561 1.25 1.25 1.25h11.5c0.689 0 1.25-0.561 1.25-1.25v-9.75c0-0.224-0.068-0.615-0.659-1.421v0zM12.271 2.729c0.48 0.48 0.856 0.912 1.134 1.271h-2.406v-2.405c0.359 0.278 0.792 0.654 1.271 1.134v0zM14 14.75c0 0.136-0.114 0.25-0.25 0.25h-11.5c-0.135 0-0.25-0.114-0.25-0.25v-13.5c0-0.135 0.115-0.25 0.25-0.25 0 0 7.749-0 7.75 0v3.5c0 0.276 0.224 0.5 0.5 0.5h3.5v9.75z"></path>
</symbol>
<symbol id="icon-file-word" viewBox="0 0 16 16">
<path d="M9.997 7.436h0.691l-0.797 3.534-1.036-4.969h-1.665l-1.205 4.969-0.903-4.969h-1.741l1.767 7.998h1.701l1.192-4.73 1.066 4.73h1.568l2.025-7.998h-2.663v1.435z"></path>
<path d="M14.341 3.579c-0.347-0.473-0.831-1.027-1.362-1.558s-1.085-1.015-1.558-1.362c-0.806-0.591-1.197-0.659-1.421-0.659h-7.75c-0.689 0-1.25 0.561-1.25 1.25v13.5c0 0.689 0.561 1.25 1.25 1.25h11.5c0.689 0 1.25-0.561 1.25-1.25v-9.75c0-0.224-0.068-0.615-0.659-1.421v0zM12.271 2.729c0.48 0.48 0.856 0.912 1.134 1.271h-2.406v-2.405c0.359 0.278 0.792 0.654 1.271 1.134v0zM14 14.75c0 0.136-0.114 0.25-0.25 0.25h-11.5c-0.135 0-0.25-0.114-0.25-0.25v-13.5c0-0.135 0.115-0.25 0.25-0.25 0 0 7.749-0 7.75 0v3.5c0 0.276 0.224 0.5 0.5 0.5h3.5v9.75z"></path>
</symbol>
<symbol id="icon-file-excel" viewBox="0 0 16 16">
<path d="M11.61 6h-2.114l-1.496 2.204-1.496-2.204h-2.114l2.534 3.788-2.859 4.212h3.935v-1.431h-0.784l0.784-1.172 1.741 2.603h2.194l-2.859-4.212 2.534-3.788z"></path>
<path d="M14.341 3.579c-0.347-0.473-0.831-1.027-1.362-1.558s-1.085-1.015-1.558-1.362c-0.806-0.591-1.197-0.659-1.421-0.659h-7.75c-0.689 0-1.25 0.561-1.25 1.25v13.5c0 0.689 0.561 1.25 1.25 1.25h11.5c0.689 0 1.25-0.561 1.25-1.25v-9.75c0-0.224-0.068-0.615-0.659-1.421v0zM12.271 2.729c0.48 0.48 0.856 0.912 1.134 1.271h-2.406v-2.405c0.359 0.278 0.792 0.654 1.271 1.134v0zM14 14.75c0 0.136-0.114 0.25-0.25 0.25h-11.5c-0.135 0-0.25-0.114-0.25-0.25v-13.5c0-0.135 0.115-0.25 0.25-0.25 0 0 7.749-0 7.75 0v3.5c0 0.276 0.224 0.5 0.5 0.5h3.5v9.75z"></path>
</symbol>
</defs>
</svg>
